<svg xmlns="http://www.w3.org/2000/svg" viewBox="0 0 1011.789 189.853" role="img" aria-labelledby="footer-signature-title">
  <title id="footer-signature-title">Sudene, Ministério da Integração e do Desenvolvimento Regional, Governo do Brasil. Do lado do povo brasileiro.</title>
  <g transform="matrix(1 0 0 -1 0 189.853)">
  <path d="M 0 0 L 1011.789 0 L 1011.789 189.852 L 0 189.852 Z" fill="rgb(0 0 0)" transform="matrix(1 0 0 1 0 0)"/>
  <path d="M 0 0 C 0.15 6.574 -4.967 8.705 -10.643 8.705 C -16.019 8.705 -21.846 5.94 -21.846 -0.074 C -21.846 -4.516 -18.709 -6.235 -15.461 -7.319 C -11.761 -8.548 -9.038 -8.812 -9.038 -10.756 C -9.038 -12.506 -11.015 -13.328 -12.62 -13.328 C -13.968 -13.328 -14.934 -13.258 -15.649 -12.657 C -16.32 -11.985 -16.652 -11.089 -16.652 -9.634 L -24.616 -9.634 C -24.95 -16.432 -19.418 -19.236 -13.291 -19.236 C -7.508 -19.236 -1.268 -16.207 -1.268 -9.784 C -1.268 -6.61 -2.836 -4.071 -7.47 -2.426 C -10.08 -1.493 -14.08 -1.38 -14.08 0.639 C -14.08 2.391 -12.288 2.803 -10.902 2.803 C -9.972 2.803 -9.113 2.653 -8.511 2.208 C -7.916 1.757 -7.545 1.085 -7.578 0 Z M 23.864 0.785 L 16.47 0.785 L 14.79 -7.094 C 14.193 -9.559 14.043 -13.184 10.719 -13.184 C 9.634 -13.184 8.592 -12.545 8.592 -11.465 C 8.592 -10.9 8.668 -10.342 8.888 -9.333 L 11.057 0.785 L 3.662 0.785 C 1.423 -9.897 0.784 -12.249 0.784 -13.93 C 0.784 -17.624 3.587 -19.09 6.949 -19.09 C 9.451 -19.09 11.578 -18.038 13.184 -16.131 L 13.258 -16.131 L 12.663 -18.596 L 19.832 -18.596 Z M 35.217 -13.704 C 33.279 -13.704 32.495 -12.286 32.495 -10.531 C 32.495 -7.728 33.462 -4.108 36.415 -4.108 C 38.316 -4.108 39.062 -5.525 39.062 -7.689 C 39.062 -10.004 38.096 -13.704 35.217 -13.704 M 36.973 -18.596 L 44.218 -18.596 L 49.744 8.066 L 42.349 8.066 L 40.335 -1.606 C 39.062 0.602 36.973 1.273 34.735 1.273 C 28.945 1.273 25.1 -3.845 25.1 -11.202 C 25.1 -13.554 25.96 -19.09 32.194 -19.09 C 34.434 -19.09 36.076 -18.221 37.349 -16.394 L 37.425 -16.394 Z M 56.843 -6.717 C 57.402 -4.666 58.706 -3.469 60.687 -3.469 C 62.557 -3.469 63.492 -4.629 63.492 -6.083 C 63.492 -6.272 63.453 -6.536 63.416 -6.717 Z M 62.143 -12.957 C 61.773 -13.629 60.838 -14.337 59.233 -14.337 C 56.918 -14.337 56.21 -12.619 56.21 -10.568 L 70.026 -10.568 C 70.36 -9.37 70.397 -8.254 70.397 -7.206 C 70.397 -1.116 65.21 1.273 60.914 1.273 C 56.097 1.273 49.297 -1.643 49.297 -10.531 C 49.297 -15.235 52.063 -19.09 58.932 -19.09 C 67.298 -19.09 68.754 -14.263 69.242 -12.957 Z M 71.772 -18.596 L 79.172 -18.596 L 81.342 -8.328 C 81.787 -6.31 82.571 -4.629 84.923 -4.629 C 86.12 -4.629 87.018 -5.263 87.018 -6.497 C 87.018 -7.282 86.641 -8.587 86.421 -9.709 L 84.516 -18.596 L 91.909 -18.596 L 94.262 -7.652 C 94.563 -6.235 94.783 -4.817 94.783 -3.958 C 94.783 -0.15 91.872 1.273 88.472 1.273 C 86.12 1.273 83.882 0.076 82.458 -1.68 L 82.389 -1.68 L 82.947 0.785 L 75.815 0.785 Z M 104.567 -6.717 C 105.132 -4.666 106.436 -3.469 108.417 -3.469 C 110.282 -3.469 111.215 -4.629 111.215 -6.083 C 111.215 -6.272 111.178 -6.536 111.141 -6.717 Z M 109.873 -12.957 C 109.497 -13.629 108.569 -14.337 106.957 -14.337 C 104.642 -14.337 103.933 -12.619 103.933 -10.568 L 117.751 -10.568 C 118.089 -9.37 118.127 -8.254 118.127 -7.206 C 118.127 -1.116 112.933 1.273 108.637 1.273 C 103.82 1.273 97.028 -1.643 97.028 -10.531 C 97.028 -15.235 99.788 -19.09 106.662 -19.09 C 115.029 -19.09 116.483 -14.263 116.967 -12.957 Z" fill="rgb(255 255 255)" transform="matrix(1 0 0 1 144.6066 75.8565)" fill-rule="evenodd"/>
  <path d="M 0 0 L -0.623 -0.709 Z" fill="rgb(255 255 255)" transform="matrix(1 0 0 1 115.5703 103.3145)"/>
  <path d="M 0 0 L 0.623 0.708 Z" fill="rgb(255 255 255)" transform="matrix(1 0 0 1 117.063 118.4265)"/>
  <path d="M 0 0 L -1.107 -1.434 Z" fill="rgb(255 255 255)" transform="matrix(1 0 0 1 101.1945 92.7412)"/>
  <path d="M 0 0 L 0.768 1.279 Z" fill="rgb(255 255 255)" transform="matrix(1 0 0 1 100.4265 91.4625)"/>
  <path d="M 0 0 L -1.417 -2.519 Z" fill="rgb(32 31 30)" transform="matrix(1 0 0 1 106.145 129.7084)" fill-rule="evenodd"/>
  <path d="M 0 0 L -16.024 0 C -26.228 0 -33.397 8.28 -32.032 18.484 C -30.663 28.693 -21.281 36.967 -11.072 36.967 L 4.946 36.967 Z" fill="rgb(255 255 255)" transform="matrix(1 0 0 1 117.2022 92.7412)" fill-rule="evenodd"/>
  <path d="M 0 0 L 7.664 -18.478 L -4.951 -36.967 Z" fill="rgb(255 255 255)" transform="matrix(1 0 0 1 162.3437 129.7084)" fill-rule="evenodd"/>
  <path d="M 0 0 L -10.139 0 L -5.194 36.967 L 4.945 36.967 Z" fill="rgb(255 255 255)" transform="matrix(1 0 0 1 129.7853 92.7412)" fill-rule="evenodd"/>
  <path d="M 0 0 L -10.139 0 L -5.187 36.967 L 4.946 36.967 Z" fill="rgb(255 255 255)" transform="matrix(1 0 0 1 142.3671 92.7412)" fill-rule="evenodd"/>
  <path d="M 0 0 L -10.139 0 L -5.187 36.967 L 4.946 36.967 Z" fill="rgb(255 255 255)" transform="matrix(1 0 0 1 154.9488 92.7412)" fill-rule="evenodd"/>
  <path d="M 0 0 L 16.024 0 C 26.233 0 33.397 -8.276 32.033 -18.484 C 30.669 -28.687 21.283 -36.963 11.079 -36.963 L -4.946 -36.963 Z" fill="rgb(255 255 255)" transform="matrix(1 0 0 1 82.7371 93.0629)" fill-rule="evenodd"/>
  <path d="M 0 0 L -10.133 0 L -5.187 36.963 L 4.952 36.963 Z" fill="rgb(255 255 255)" transform="matrix(1 0 0 1 75.6639 56.0999)" fill-rule="evenodd"/>
  <path d="M 0 0 L -10.139 0 L -5.194 36.963 L 4.945 36.963 Z" fill="rgb(255 255 255)" transform="matrix(1 0 0 1 63.4052 56.0999)" fill-rule="evenodd"/>
  <path d="M 0 0 C 1.018 0 1.847 0.349 2.49 1.048 C 3.132 1.747 3.453 2.631 3.453 3.7 C 3.453 4.779 3.132 5.666 2.49 6.359 C 1.847 7.053 1.018 7.4 0 7.4 L -2.467 7.4 L -2.467 0 Z M 0 9.096 C 1.48 9.096 2.711 8.577 3.692 7.539 C 4.674 6.501 5.165 5.221 5.165 3.7 C 5.165 2.189 4.674 0.912 3.692 -0.131 C 2.711 -1.174 1.48 -1.696 0 -1.696 L -4.24 -1.696 L -4.24 9.096 Z" fill="rgb(255 255 255)" transform="matrix(1 0 0 1 677.5826 28.9137)"/>
  <path d="M 0 0 C 0.735 -0.735 1.642 -1.102 2.721 -1.102 C 3.8 -1.102 4.707 -0.735 5.442 0 C 6.177 0.735 6.544 1.657 6.544 2.767 C 6.544 3.877 6.177 4.8 5.442 5.535 C 4.707 6.269 3.8 6.637 2.721 6.637 C 1.642 6.637 0.735 6.269 0 5.535 C -0.735 4.8 -1.102 3.877 -1.102 2.767 C -1.102 1.657 -0.735 0.735 0 0 M 6.691 -1.202 C 5.606 -2.287 4.283 -2.829 2.721 -2.829 C 1.159 -2.829 -0.165 -2.287 -1.249 -1.202 C -2.333 -0.118 -2.875 1.205 -2.875 2.767 C -2.875 4.329 -2.333 5.653 -1.249 6.737 C -0.165 7.821 1.159 8.364 2.721 8.364 C 4.283 8.364 5.606 7.821 6.691 6.737 C 7.775 5.653 8.317 4.329 8.317 2.767 C 8.317 1.205 7.775 -0.118 6.691 -1.202" fill="rgb(255 255 255)" transform="matrix(1 0 0 1 688.7059 29.8464)"/>
  <path d="M 0 0 L 4.394 0 L 4.394 -1.696 L -1.773 -1.696 L -1.773 9.096 L 0 9.096 Z" fill="rgb(255 255 255)" transform="matrix(1 0 0 1 708.2776 28.9137)"/>
  <path d="M 0 0 L 3.419 0 L 1.714 4.872 Z M 4.764 -3.839 L 4.002 -1.665 L -0.587 -1.665 L -1.341 -3.839 L -3.268 -3.839 L 0.647 6.953 L 2.775 6.953 L 6.676 -3.839 Z" fill="rgb(255 255 255)" transform="matrix(1 0 0 1 718.5602 31.0565)"/>
  <path d="M 0 0 C 1.018 0 1.847 0.349 2.49 1.048 C 3.132 1.747 3.453 2.631 3.453 3.7 C 3.453 4.779 3.132 5.666 2.49 6.359 C 1.847 7.053 1.018 7.4 0 7.4 L -2.466 7.4 L -2.466 0 Z M 0 9.096 C 1.48 9.096 2.711 8.577 3.693 7.539 C 4.674 6.501 5.165 5.221 5.165 3.7 C 5.165 2.189 4.674 0.912 3.693 -0.131 C 2.711 -1.174 1.48 -1.696 0 -1.696 L -4.239 -1.696 L -4.239 9.096 Z" fill="rgb(255 255 255)" transform="matrix(1 0 0 1 732.6356 28.9137)"/>
  <path d="M 0 0 C 0.735 -0.735 1.642 -1.102 2.721 -1.102 C 3.8 -1.102 4.707 -0.735 5.442 0 C 6.177 0.735 6.544 1.657 6.544 2.767 C 6.544 3.877 6.177 4.8 5.442 5.535 C 4.707 6.269 3.8 6.637 2.721 6.637 C 1.642 6.637 0.735 6.269 0 5.535 C -0.735 4.8 -1.102 3.877 -1.102 2.767 C -1.102 1.657 -0.735 0.735 0 0 M 6.691 -1.202 C 5.606 -2.287 4.283 -2.829 2.721 -2.829 C 1.158 -2.829 -0.165 -2.287 -1.249 -1.202 C -2.333 -0.118 -2.875 1.205 -2.875 2.767 C -2.875 4.329 -2.333 5.653 -1.249 6.737 C -0.165 7.821 1.158 8.364 2.721 8.364 C 4.283 8.364 5.606 7.821 6.691 6.737 C 7.775 5.653 8.317 4.329 8.317 2.767 C 8.317 1.205 7.775 -0.118 6.691 -1.202" fill="rgb(255 255 255)" transform="matrix(1 0 0 1 743.7591 29.8464)"/>
  <path d="M 0 0 C 1.018 0 1.847 0.349 2.49 1.048 C 3.132 1.747 3.453 2.631 3.453 3.7 C 3.453 4.779 3.132 5.666 2.49 6.359 C 1.847 7.053 1.018 7.4 0 7.4 L -2.467 7.4 L -2.467 0 Z M 0 9.096 C 1.48 9.096 2.711 8.577 3.692 7.539 C 4.674 6.501 5.165 5.221 5.165 3.7 C 5.165 2.189 4.674 0.912 3.692 -0.131 C 2.711 -1.174 1.48 -1.696 0 -1.696 L -4.24 -1.696 L -4.24 9.096 Z" fill="rgb(255 255 255)" transform="matrix(1 0 0 1 765.7972 28.9137)"/>
  <path d="M 0 0 C 0.735 -0.735 1.642 -1.102 2.721 -1.102 C 3.8 -1.102 4.707 -0.735 5.442 0 C 6.177 0.735 6.544 1.657 6.544 2.767 C 6.544 3.877 6.177 4.8 5.442 5.535 C 4.707 6.269 3.8 6.637 2.721 6.637 C 1.642 6.637 0.735 6.269 0 5.535 C -0.735 4.8 -1.102 3.877 -1.102 2.767 C -1.102 1.657 -0.735 0.735 0 0 M 6.691 -1.202 C 5.606 -2.287 4.283 -2.829 2.721 -2.829 C 1.159 -2.829 -0.165 -2.287 -1.249 -1.202 C -2.333 -0.118 -2.875 1.205 -2.875 2.767 C -2.875 4.329 -2.333 5.653 -1.249 6.737 C -0.165 7.821 1.159 8.364 2.721 8.364 C 4.283 8.364 5.606 7.821 6.691 6.737 C 7.775 5.653 8.317 4.329 8.317 2.767 C 8.317 1.205 7.775 -0.118 6.691 -1.202" fill="rgb(255 255 255)" transform="matrix(1 0 0 1 776.9203 29.8464)"/>
  <path d="M 0 0 C 0.524 0 0.956 0.177 1.295 0.532 C 1.634 0.886 1.804 1.336 1.804 1.881 C 1.804 2.426 1.634 2.875 1.295 3.23 C 0.956 3.585 0.524 3.762 0 3.762 L -2.205 3.762 L -2.205 0 Z M 0 5.427 C 1.018 5.427 1.868 5.088 2.552 4.409 C 3.235 3.731 3.577 2.888 3.577 1.881 C 3.577 0.884 3.235 0.044 2.552 -0.64 C 1.868 -1.323 1.018 -1.665 0 -1.665 L -2.205 -1.665 L -2.205 -5.365 L -3.978 -5.365 L -3.978 5.427 Z" fill="rgb(255 255 255)" transform="matrix(1 0 0 1 798.6965 32.5829)"/>
  <path d="M 0 0 C 0.735 -0.735 1.642 -1.102 2.721 -1.102 C 3.8 -1.102 4.707 -0.735 5.442 0 C 6.177 0.735 6.544 1.657 6.544 2.767 C 6.544 3.877 6.177 4.8 5.442 5.535 C 4.707 6.269 3.8 6.637 2.721 6.637 C 1.642 6.637 0.735 6.269 0 5.535 C -0.735 4.8 -1.102 3.877 -1.102 2.767 C -1.102 1.657 -0.735 0.735 0 0 M 6.691 -1.202 C 5.606 -2.287 4.283 -2.829 2.721 -2.829 C 1.159 -2.829 -0.165 -2.287 -1.249 -1.202 C -2.333 -0.118 -2.875 1.205 -2.875 2.767 C -2.875 4.329 -2.333 5.653 -1.249 6.737 C -0.165 7.821 1.159 8.364 2.721 8.364 C 4.283 8.364 5.606 7.821 6.691 6.737 C 7.775 5.653 8.317 4.329 8.317 2.767 C 8.317 1.205 7.775 -0.118 6.691 -1.202" fill="rgb(255 255 255)" transform="matrix(1 0 0 1 808.0623 29.8464)"/>
  <path d="M 0 0 L -3.746 10.792 L -1.804 10.792 L 1.063 2.156 L 3.947 10.792 L 5.874 10.792 L 2.128 0 Z" fill="rgb(255 255 255)" transform="matrix(1 0 0 1 822.2841 27.2179)"/>
  <path d="M 0 0 C 0.735 -0.735 1.642 -1.102 2.721 -1.102 C 3.8 -1.102 4.707 -0.735 5.442 0 C 6.177 0.735 6.544 1.657 6.544 2.767 C 6.544 3.877 6.177 4.8 5.442 5.535 C 4.707 6.269 3.8 6.637 2.721 6.637 C 1.642 6.637 0.735 6.269 0 5.535 C -0.735 4.8 -1.102 3.877 -1.102 2.767 C -1.102 1.657 -0.735 0.735 0 0 M 6.691 -1.202 C 5.606 -2.287 4.283 -2.829 2.721 -2.829 C 1.159 -2.829 -0.165 -2.287 -1.249 -1.202 C -2.333 -0.118 -2.875 1.205 -2.875 2.767 C -2.875 4.329 -2.333 5.653 -1.249 6.737 C -0.165 7.821 1.159 8.364 2.721 8.364 C 4.283 8.364 5.606 7.821 6.691 6.737 C 7.775 5.653 8.317 4.329 8.317 2.767 C 8.317 1.205 7.775 -0.118 6.691 -1.202" fill="rgb(255 255 255)" transform="matrix(1 0 0 1 833.1915 29.8464)"/>
  <path d="M 0 0 C 0.411 0 0.758 0.146 1.041 0.439 C 1.323 0.732 1.465 1.089 1.465 1.511 C 1.465 1.932 1.323 2.289 1.041 2.582 C 0.758 2.875 0.411 3.022 0 3.022 L -2.852 3.022 L -2.852 0 Z M -0.339 7.462 L -2.852 7.462 L -2.852 4.625 L -0.339 4.625 C 0.051 4.625 0.38 4.761 0.647 5.034 C 0.914 5.306 1.048 5.643 1.048 6.044 C 1.048 6.444 0.914 6.781 0.647 7.053 C 0.38 7.326 0.051 7.462 -0.339 7.462 M 1.727 3.931 C 2.199 3.685 2.569 3.345 2.837 2.914 C 3.104 2.482 3.237 1.983 3.237 1.418 C 3.237 0.534 2.924 -0.2 2.297 -0.786 C 1.67 -1.372 0.904 -1.665 0 -1.665 L -4.625 -1.665 L -4.625 9.127 L -0.339 9.127 C 0.545 9.127 1.292 8.841 1.904 8.271 C 2.515 7.701 2.821 6.989 2.821 6.136 C 2.821 5.201 2.456 4.466 1.727 3.931" fill="rgb(255 255 255)" transform="matrix(1 0 0 1 855.6152 28.8828)"/>
  <path d="M 0 0 L 0 -3.608 L 2.544 -3.608 C 3.016 -3.608 3.417 -3.433 3.746 -3.084 C 4.075 -2.734 4.24 -2.307 4.24 -1.804 C 4.24 -1.3 4.075 -0.874 3.746 -0.524 C 3.417 -0.175 3.016 0 2.544 0 Z M 4.378 -9.127 L 2.098 -5.195 L 0 -5.195 L 0 -9.127 L -1.773 -9.127 L -1.773 1.665 L 2.544 1.665 C 3.51 1.665 4.329 1.328 5.003 0.655 C 5.676 -0.018 6.013 -0.838 6.013 -1.804 C 6.013 -2.492 5.815 -3.122 5.419 -3.693 C 5.023 -4.263 4.507 -4.677 3.87 -4.934 L 6.321 -9.127 Z" fill="rgb(255 255 255)" transform="matrix(1 0 0 1 864.1713 36.3447)"/>
  <path d="M 0 0 L 3.419 0 L 1.714 4.872 Z M 4.764 -3.839 L 4.002 -1.665 L -0.587 -1.665 L -1.341 -3.839 L -3.268 -3.839 L 0.647 6.953 L 2.775 6.953 L 6.676 -3.839 Z" fill="rgb(255 255 255)" transform="matrix(1 0 0 1 876.1193 31.0565)"/>
  <path d="M 0 0 C -1.038 0 -1.919 0.236 -2.644 0.709 C -3.369 1.182 -3.875 1.829 -4.163 2.652 L -2.636 3.546 C -2.205 2.333 -1.31 1.727 0.046 1.727 C 0.714 1.727 1.215 1.857 1.549 2.118 C 1.883 2.38 2.05 2.721 2.05 3.141 C 2.05 3.582 1.87 3.918 1.51 4.148 C 1.15 4.379 0.512 4.633 -0.404 4.909 C -0.906 5.096 -1.319 5.249 -1.642 5.37 C -1.966 5.49 -2.305 5.671 -2.659 5.912 C -3.014 6.154 -3.279 6.454 -3.453 6.814 C -3.628 7.174 -3.715 7.595 -3.715 8.078 C -3.715 9.034 -3.376 9.792 -2.698 10.352 C -2.02 10.912 -1.203 11.192 -0.247 11.192 C 0.617 11.192 1.372 10.982 2.019 10.56 C 2.667 10.139 3.166 9.558 3.515 8.818 L 2.019 7.955 C 1.567 8.962 0.812 9.466 -0.247 9.466 C -0.761 9.466 -1.172 9.345 -1.48 9.104 C -1.788 8.862 -1.942 8.535 -1.942 8.125 C -1.942 7.732 -1.785 7.422 -1.47 7.196 C -1.155 6.969 -0.584 6.73 0.244 6.479 C 0.647 6.327 0.942 6.215 1.13 6.145 C 1.317 6.074 1.586 5.973 1.937 5.841 C 2.287 5.709 2.549 5.57 2.722 5.424 C 2.896 5.279 3.082 5.096 3.281 4.878 C 3.479 4.659 3.619 4.409 3.701 4.128 C 3.782 3.847 3.823 3.53 3.823 3.176 C 3.823 2.199 3.471 1.426 2.767 0.856 C 2.063 0.285 1.141 0 0 0" fill="rgb(255 255 255)" transform="matrix(1 0 0 1 889.2701 27.0175)"/>
  <path d="M 896.547 38.01 L 898.32 38.01 L 898.32 27.217999999999996 L 896.547 27.217999999999996 Z" fill="rgb(255 255 255)" transform="matrix(1 0 0 1 0 0)"/>
  <path d="M 0 0 L 4.394 0 L 4.394 -1.696 L -1.773 -1.696 L -1.773 9.096 L 0 9.096 Z" fill="rgb(255 255 255)" transform="matrix(1 0 0 1 904.2549 28.9137)"/>
  <path d="M 0 0 L 4.779 0 L 4.779 -1.696 L -1.773 -1.696 L -1.773 9.096 L 4.702 9.096 L 4.702 7.4 L 0 7.4 L 0 4.594 L 4.317 4.594 L 4.317 2.914 L 0 2.914 Z" fill="rgb(255 255 255)" transform="matrix(1 0 0 1 913.736 28.9137)"/>
  <path d="M 922.138 38.01 L 923.9110000000001 38.01 L 923.9110000000001 27.217999999999996 L 922.138 27.217999999999996 Z" fill="rgb(255 255 255)" transform="matrix(1 0 0 1 0 0)"/>
  <path d="M 0 0 L 0 -3.608 L 2.544 -3.608 C 3.017 -3.608 3.417 -3.433 3.746 -3.084 C 4.075 -2.734 4.24 -2.307 4.24 -1.804 C 4.24 -1.3 4.075 -0.874 3.746 -0.524 C 3.417 -0.175 3.017 0 2.544 0 Z M 4.379 -9.127 L 2.098 -5.195 L 0 -5.195 L 0 -9.127 L -1.773 -9.127 L -1.773 1.665 L 2.544 1.665 C 3.51 1.665 4.329 1.328 5.003 0.655 C 5.676 -0.018 6.013 -0.838 6.013 -1.804 C 6.013 -2.492 5.815 -3.122 5.419 -3.693 C 5.023 -4.263 4.507 -4.677 3.87 -4.934 L 6.321 -9.127 Z" fill="rgb(255 255 255)" transform="matrix(1 0 0 1 929.8464 36.3447)"/>
  <path d="M 0 0 C 0.735 -0.735 1.642 -1.102 2.721 -1.102 C 3.8 -1.102 4.707 -0.735 5.442 0 C 6.177 0.735 6.544 1.657 6.544 2.767 C 6.544 3.877 6.177 4.8 5.442 5.535 C 4.707 6.269 3.8 6.637 2.721 6.637 C 1.642 6.637 0.735 6.269 0 5.535 C -0.735 4.8 -1.102 3.877 -1.102 2.767 C -1.102 1.657 -0.735 0.735 0 0 M 6.691 -1.202 C 5.606 -2.287 4.283 -2.829 2.721 -2.829 C 1.159 -2.829 -0.165 -2.287 -1.249 -1.202 C -2.333 -0.118 -2.875 1.205 -2.875 2.767 C -2.875 4.329 -2.333 5.653 -1.249 6.737 C -0.165 7.821 1.159 8.364 2.721 8.364 C 4.283 8.364 5.606 7.821 6.691 6.737 C 7.775 5.653 8.317 4.329 8.317 2.767 C 8.317 1.205 7.775 -0.118 6.691 -1.202" fill="rgb(255 255 255)" transform="matrix(1 0 0 1 941.787 29.8464)"/>
  <path d="M 0 0 L 0 -1.111 C 0 -5.557 -2.978 -8.451 -6.921 -8.451 C -11.115 -8.451 -14.407 -5.18 -14.407 -1.006 C -14.407 3.167 -11.094 6.48 -6.942 6.48 C -4.32 6.48 -1.909 5.138 -0.587 2.936 L -3.859 0.986 C -4.488 2.118 -5.641 2.768 -6.984 2.768 C -9.081 2.768 -10.57 1.153 -10.57 -1.028 C -10.57 -3.167 -9.081 -4.719 -6.921 -4.719 C -5.411 -4.719 -4.446 -3.964 -4.111 -3.041 L -7.948 -3.041 L -7.948 0 Z" fill="rgb(255 255 255)" transform="matrix(1 0 0 1 739.1879 153.9384)"/>
  <path d="M 0 0 C 0 2.013 -1.447 3.524 -3.313 3.524 C -5.222 3.524 -6.69 2.013 -6.69 0 C -6.69 -2.013 -5.222 -3.523 -3.313 -3.523 C -1.447 -3.523 0 -2.013 0 0 M -10.8 0 C -10.8 4.152 -7.487 7.466 -3.313 7.466 C 0.818 7.466 4.131 4.152 4.131 0 C 4.131 -4.152 0.818 -7.466 -3.313 -7.466 C -7.487 -7.466 -10.8 -4.152 -10.8 0" fill="rgb(255 255 255)" transform="matrix(1 0 0 1 754.739 152.9526)"/>
  <path d="M 0 0 L -5.578 -14.261 L -9.416 -14.261 L -14.932 0 L -10.8 0 L -7.487 -8.787 L -4.131 0 Z" fill="rgb(255 255 255)" transform="matrix(1 0 0 1 776.8967 160.083)"/>
  <path d="M 0 0 L 0 -2.118 L 4.194 -2.118 L 4.194 -5.18 L 0 -5.18 L 0 -7.298 L 6.354 -7.298 L 6.354 -10.779 L -3.859 -10.779 L -3.859 3.481 L 6.354 3.481 L 6.354 0 Z" fill="rgb(255 255 255)" transform="matrix(1 0 0 1 785.2341 156.6016)"/>
  <path d="M 0 0 L 2.684 0 C 3.586 0 4.152 0.629 4.152 1.321 C 4.152 2.034 3.607 2.663 2.684 2.663 L 0 2.663 Z M 1.615 -3.25 L 0 -3.25 L 0 -8.179 L -3.796 -8.179 L -3.796 6.082 L 3.104 6.082 C 5.893 6.082 8.032 4.09 8.032 1.447 C 8.032 -0.377 7.046 -1.887 5.536 -2.684 L 8.703 -8.179 L 4.446 -8.179 Z" fill="rgb(255 255 255)" transform="matrix(1 0 0 1 800.7856 154.0011)"/>
  <path d="M 0 0 L 0 -14.261 L -3.25 -14.261 L -8.997 -6.753 L -8.997 -14.261 L -12.792 -14.261 L -12.792 0 L -9.563 0 L -3.796 -7.528 L -3.796 0 Z" fill="rgb(255 255 255)" transform="matrix(1 0 0 1 827.0325 160.083)"/>
  <path d="M 0 0 C 0 2.013 -1.447 3.524 -3.313 3.524 C -5.222 3.524 -6.69 2.013 -6.69 0 C -6.69 -2.013 -5.222 -3.523 -3.313 -3.523 C -1.447 -3.523 0 -2.013 0 0 M -10.8 0 C -10.8 4.152 -7.487 7.466 -3.313 7.466 C 0.818 7.466 4.131 4.152 4.131 0 C 4.131 -4.152 0.818 -7.466 -3.313 -7.466 C -7.487 -7.466 -10.8 -4.152 -10.8 0" fill="rgb(255 255 255)" transform="matrix(1 0 0 1 842.8354 152.9526)"/>
  <path d="M 0 0 C 0 2.076 -1.552 3.419 -3.817 3.419 L -5.557 3.419 L -5.557 -3.418 L -3.817 -3.418 C -1.552 -3.418 0 -2.076 0 0 M 3.984 0 C 3.984 -4.089 0.713 -7.13 -3.628 -7.13 L -9.437 -7.13 L -9.437 7.13 L -3.628 7.13 C 0.713 7.13 3.984 4.089 3.984 0" fill="rgb(255 255 255)" transform="matrix(1 0 0 1 874.6572 152.9526)"/>
  <path d="M 0 0 C 0 2.013 -1.447 3.524 -3.313 3.524 C -5.222 3.524 -6.69 2.013 -6.69 0 C -6.69 -2.013 -5.222 -3.523 -3.313 -3.523 C -1.447 -3.523 0 -2.013 0 0 M -10.8 0 C -10.8 4.152 -7.487 7.466 -3.313 7.466 C 0.818 7.466 4.131 4.152 4.131 0 C 4.131 -4.152 0.818 -7.466 -3.313 -7.466 C -7.487 -7.466 -10.8 -4.152 -10.8 0" fill="rgb(255 255 255)" transform="matrix(1 0 0 1 892.9324 152.9526)"/>
  <path d="M 0 0 L -28.567 0 L -28.567 -28.535 L 5.13 -28.535 L 11.544 -17.75 Z M 50.373 -2.355 C 43.306 -2.355 36.629 -5.089 31.573 -10.053 C 26.556 -14.979 23.704 -21.538 23.532 -28.535 L 77.214 -28.535 C 77.042 -21.538 74.19 -14.979 69.173 -10.053 C 64.117 -5.089 57.44 -2.355 50.373 -2.355 M 22.473 23.448 C 22.473 35.639 12.554 45.558 0.363 45.558 L -28.004 45.558 L 0.724 1.341 C 12.724 1.534 22.473 11.436 22.473 23.448 M 13.122 -17.715 L 20.155 -28.535 L 22.195 -28.535 C 22.367 -21.18 25.359 -14.284 30.63 -9.106 C 35.938 -3.89 42.95 -1.017 50.373 -1.017 C 57.796 -1.017 64.808 -3.89 70.116 -9.106 C 75.386 -14.284 78.378 -21.18 78.551 -28.535 L 81.511 -28.535 L 81.511 -7.437 L 50.373 44.918 Z M 12.358 -19 L 6.687 -28.535 L 18.558 -28.535 Z M -51.819 15.292 L -59.725 15.292 L -59.725 -28.535 L -51.819 -28.535 C -39.736 -28.535 -29.905 -18.704 -29.905 -6.621 C -29.905 5.462 -39.736 15.292 -51.819 15.292 M -85.807 -28.535 L -61.063 -28.535 L -61.063 15.291999999999998 L -85.807 15.291999999999998 Z M -85.807 16.631 L -61.063 16.631 L -61.063 45.558 L -85.807 45.558 Z M -39.891 31.094 C -39.891 39.07 -46.38 45.558 -54.355 45.558 L -59.725 45.558 L -59.725 16.631 L -54.355 16.631 C -46.38 16.631 -39.891 23.119 -39.891 31.094 M 82.849 -28.535 L 94.059 -28.535 L 82.849 -9.687 Z M 140.123 -28.535 L 164.86599999999999 -28.535 L 164.86599999999999 45.55800000000001 L 140.123 45.55800000000001 Z M 170.605 -28.535 L 195.349 -28.535 L 195.349 -4.538 L 170.605 -4.538 Z M 196.687 -28.535 L 221.431 -28.535 L 221.431 -4.538 L 196.687 -4.538 Z M 134.385 45.558 L 107.50599999999999 45.558 L 107.50599999999999 19.467 L 134.385 19.467 Z M 170.605 -3.199 L 195.349 -3.199 L 195.349 45.558 L 170.605 45.558 Z M -28.567 43.969 L -28.567 1.338 L -0.87 1.338 Z M 98.937 13.372 L 106.167 13.372 L 106.167 45.558 L 98.942 45.558 C 90.069 45.558 82.849 38.339 82.849 29.465 C 82.849 20.594 90.066 13.375 98.937 13.372 M 115.453 18.128 L 107.506 18.128 L 107.506 -28.535 L 115.453 -28.535 C 128.319 -28.535 138.785 -18.068 138.785 -5.203 C 138.785 7.662 128.319 18.128 115.453 18.128 M 82.849 -7.069 L 95.616 -28.535 L 106.168 -28.535 L 106.168 12.034 L 82.849 12.034 Z" fill="rgb(255 255 255)" transform="matrix(1 0 0 1 743.642 83.7735)"/>
  <path d="M 0 0 L 0 10.825 L -4.472 2.612 L -5.883 2.612 L -10.376 10.825 L -10.376 0 L -12.769 0 L -12.769 15.193 L -10.198 15.193 L -5.172 5.904 L -0.146 15.193 L 2.425 15.193 L 2.425 0 Z" fill="rgb(255 255 255)" transform="matrix(1 0 0 1 412.8979 130.2924)"/>
  <path d="M 423.019 145.486 L 425.412 145.486 L 425.412 130.29299999999998 L 423.019 130.29299999999998 Z" fill="rgb(255 255 255)" transform="matrix(1 0 0 1 0 0)"/>
  <path d="M 0 0 L 0 -10.742 L -2.393 -10.742 L -2.393 4.451 L -0.429 4.451 L 8.182 -6.531 L 8.182 4.43 L 10.596 4.43 L 10.596 -10.742 L 8.495 -10.742 Z" fill="rgb(255 255 255)" transform="matrix(1 0 0 1 435.5122 141.0346)"/>
  <path d="M 453.805 145.486 L 456.198 145.486 L 456.198 130.29299999999998 L 453.805 130.29299999999998 Z" fill="rgb(255 255 255)" transform="matrix(1 0 0 1 0 0)"/>
  <path d="M 0 0 C -0.328 0.362 -0.885 0.711 -1.672 1.045 C -2.459 1.38 -3.271 1.547 -4.106 1.547 C -5.096 1.547 -5.836 1.364 -6.327 0.998 C -6.818 0.633 -7.063 0.115 -7.063 -0.554 C -7.063 -0.763 -7.036 -0.95 -6.98 -1.117 C -6.925 -1.285 -6.854 -1.433 -6.766 -1.562 C -6.679 -1.69 -6.549 -1.814 -6.374 -1.933 C -6.2 -2.051 -6.027 -2.152 -5.857 -2.235 C -5.687 -2.319 -5.453 -2.408 -5.157 -2.502 C -4.861 -2.597 -4.584 -2.677 -4.326 -2.742 C -4.068 -2.809 -3.73 -2.895 -3.313 -2.998 C -2.644 -3.159 -2.072 -3.317 -1.599 -3.474 C -1.125 -3.631 -0.669 -3.829 -0.23 -4.069 C 0.209 -4.31 0.561 -4.578 0.825 -4.874 C 1.09 -5.17 1.301 -5.531 1.457 -5.956 C 1.614 -6.381 1.692 -6.865 1.692 -7.408 C 1.692 -8.014 1.597 -8.562 1.405 -9.049 C 1.214 -9.536 0.95 -9.947 0.616 -10.281 C 0.282 -10.616 -0.122 -10.896 -0.596 -11.123 C -1.069 -11.35 -1.578 -11.513 -2.121 -11.614 C -2.665 -11.715 -3.25 -11.766 -3.877 -11.766 C -5.033 -11.766 -6.151 -11.59 -7.231 -11.237 C -8.311 -10.886 -9.282 -10.379 -10.146 -9.718 L -9.049 -7.659 C -8.61 -8.111 -7.895 -8.549 -6.902 -8.971 C -5.909 -9.392 -4.887 -9.603 -3.835 -9.603 C -2.888 -9.603 -2.158 -9.436 -1.646 -9.101 C -1.134 -8.767 -0.878 -8.286 -0.878 -7.659 C -0.878 -7.408 -0.916 -7.182 -0.993 -6.979 C -1.069 -6.777 -1.202 -6.595 -1.39 -6.431 C -1.578 -6.268 -1.771 -6.126 -1.97 -6.008 C -2.168 -5.89 -2.45 -5.768 -2.816 -5.643 C -3.182 -5.517 -3.517 -5.412 -3.819 -5.329 C -4.122 -5.245 -4.531 -5.137 -5.047 -5.005 C -5.849 -4.796 -6.51 -4.583 -7.032 -4.367 C -7.555 -4.151 -8.017 -3.887 -8.417 -3.573 C -8.817 -3.26 -9.108 -2.889 -9.29 -2.46 C -9.471 -2.032 -9.562 -1.525 -9.562 -0.94 C -9.562 -0.209 -9.42 0.451 -9.138 1.04 C -8.855 1.629 -8.468 2.114 -7.973 2.498 C -7.479 2.881 -6.896 3.174 -6.228 3.375 C -5.56 3.577 -4.831 3.679 -4.044 3.679 C -2.177 3.679 -0.467 3.107 1.087 1.965 Z" fill="rgb(255 255 255)" transform="matrix(1 0 0 1 472.8911 141.9115)"/>
  <path d="M 0 0 L -5.047 0 L -5.047 -13.072 L -7.472 -13.072 L -7.472 0 L -12.539 0 L -12.539 2.121 L 0 2.121 Z" fill="rgb(255 255 255)" transform="matrix(1 0 0 1 492.4067 143.3647)"/>
  <path d="M 0 0 L -1.547 0.47 L -0.324 2.821 L 1.923 2.821 Z M 4.253 -14.64 L 4.253 -16.761 L -6.165 -16.761 L -6.165 -1.567 L 4.064 -1.567 L 4.064 -3.688 L -3.772 -3.688 L -3.772 -8.004 L 3.009 -8.004 L 3.009 -10 L -3.772 -10 L -3.772 -14.64 Z" fill="rgb(255 255 255)" transform="matrix(1 0 0 1 504.8784 147.0531)"/>
  <path d="M 0 0 L 4.2 0 C 4.862 0 5.409 0.277 5.841 0.831 C 6.273 1.385 6.489 2.056 6.489 2.843 C 6.489 3.615 6.245 4.279 5.758 4.833 C 5.27 5.387 4.706 5.664 4.064 5.664 L 0 5.664 Z M -2.393 -7.408 L -2.393 7.785 L 4.222 7.785 C 4.884 7.785 5.512 7.643 6.107 7.356 C 6.703 7.071 7.203 6.694 7.607 6.229 C 8.011 5.762 8.332 5.231 8.568 4.64 C 8.806 4.048 8.924 3.448 8.924 2.843 C 8.924 1.812 8.652 0.88 8.108 0.047 C 7.565 -0.785 6.848 -1.344 5.956 -1.63 L 9.53 -7.408 L 6.834 -7.408 L 3.532 -2.121 L 0 -2.121 L 0 -7.408 Z" fill="rgb(255 255 255)" transform="matrix(1 0 0 1 518.2593 137.7006)"/>
  <path d="M 534.285 145.486 L 536.678 145.486 L 536.678 130.29299999999998 L 534.285 130.29299999999998 Z" fill="rgb(255 255 255)" transform="matrix(1 0 0 1 0 0)"/>
  <path d="M 0 0 C 0.738 0 1.418 0.16 2.038 0.48 C 2.657 0.801 3.166 1.224 3.563 1.75 C 3.96 2.276 4.269 2.866 4.488 3.521 C 4.707 4.176 4.817 4.849 4.817 5.538 C 4.817 6.256 4.7 6.947 4.467 7.612 C 4.233 8.277 3.913 8.866 3.506 9.378 C 3.099 9.89 2.59 10.298 1.98 10.601 C 1.37 10.903 0.711 11.055 0 11.055 C -0.738 11.055 -1.42 10.896 -2.043 10.58 C -2.666 10.263 -3.18 9.843 -3.584 9.32 C -3.988 8.798 -4.302 8.209 -4.524 7.555 C -4.747 6.899 -4.858 6.228 -4.858 5.538 C -4.858 4.576 -4.666 3.678 -4.279 2.842 C -3.893 2.006 -3.323 1.323 -2.57 0.794 C -1.818 0.265 -0.961 0 0 0 M -7.294 5.538 C -7.294 6.541 -7.107 7.511 -6.734 8.448 C -6.362 9.385 -5.855 10.205 -5.214 10.909 C -4.573 11.612 -3.797 12.177 -2.884 12.602 C -1.972 13.026 -1.003 13.239 0.021 13.239 C 1.072 13.239 2.059 13.016 2.978 12.57 C 3.897 12.124 4.666 11.537 5.282 10.81 C 5.898 10.082 6.385 9.256 6.739 8.333 C 7.095 7.41 7.272 6.472 7.272 5.518 C 7.272 4.514 7.086 3.546 6.714 2.612 C 6.341 1.679 5.838 0.86 5.204 0.156 C 4.569 -0.547 3.797 -1.109 2.884 -1.531 C 1.972 -1.952 1.003 -2.163 -0.021 -2.163 C -0.871 -2.163 -1.679 -2.022 -2.445 -1.74 C -3.212 -1.458 -3.886 -1.069 -4.467 -0.575 C -5.049 -0.08 -5.554 0.491 -5.982 1.139 C -6.41 1.787 -6.736 2.488 -6.959 3.244 C -7.183 4 -7.294 4.765 -7.294 5.538" fill="rgb(255 255 255)" transform="matrix(1 0 0 1 550.7163 132.351)"/>
  <path d="M 0 0 L -2.999 0 L -2.999 -10.951 L 0 -10.951 C 1.045 -10.951 1.945 -10.709 2.701 -10.225 C 3.457 -9.741 4.023 -9.088 4.399 -8.266 C 4.775 -7.443 4.963 -6.507 4.963 -5.455 C 4.963 -3.832 4.522 -2.517 3.642 -1.51 C 2.76 -0.504 1.547 0 0 0 M -5.392 -13.072 L -5.392 2.121 L 0 2.121 C 1.191 2.121 2.263 1.924 3.213 1.53 C 4.164 1.137 4.942 0.594 5.549 -0.1 C 6.154 -0.793 6.616 -1.594 6.933 -2.503 C 7.25 -3.412 7.408 -4.396 7.408 -5.455 C 7.408 -7.754 6.734 -9.598 5.387 -10.987 C 4.039 -12.377 2.243 -13.072 0 -13.072 Z" fill="rgb(255 255 255)" transform="matrix(1 0 0 1 579.7163 143.3647)"/>
  <path d="M 0 0 L -2.445 6.655 L -4.963 0 Z M -3.573 9.289 L -1.306 9.289 L 4.598 -5.904 L 2.069 -5.904 L 0.471 -1.777 L -5.392 -1.777 L -6.979 -5.904 L -9.529 -5.904 Z" fill="rgb(255 255 255)" transform="matrix(1 0 0 1 601.3325 136.1967)"/>
  <path d="M 357.415 115.334 L 361.553 115.334 L 361.553 100.257 L 357.415 100.257 Z" fill="rgb(255 255 255)" transform="matrix(1 0 0 1 0 0)"/>
  <path d="M 0 0 L 0 -7.414 L -4.138 -7.414 L -4.138 7.663 L -0.912 7.663 L 5.144 0 L 5.144 7.663 L 9.281 7.663 L 9.281 -7.414 L 5.994 -7.414 Z" fill="rgb(255 255 255)" transform="matrix(1 0 0 1 372.5298 107.6713)"/>
  <path d="M 0 0 L -4.324 0 L -4.324 -11.469 L -8.473 -11.469 L -8.473 0 L -12.828 0 L -12.828 3.608 L 0 3.608 Z" fill="rgb(255 255 255)" transform="matrix(1 0 0 1 400.3931 111.726)"/>
  <path d="M 0 0 L 0 -3.608 L -10.743 -3.608 L -10.743 11.469 L -0.187 11.469 L -0.187 7.86 L -6.605 7.86 L -6.605 5.734 L -1.12 5.734 L -1.12 2.386 L -6.605 2.386 L -6.605 0 Z" fill="rgb(255 255 255)" transform="matrix(1 0 0 1 416.854 103.8656)"/>
  <path d="M 0 0 L 6.201 0 L 6.201 -8.026 L 2.779 -8.026 L 2.779 -6.771 C 1.715 -7.678 0.478 -8.13 -0.934 -8.13 C -1.922 -8.13 -2.856 -7.952 -3.738 -7.596 C -4.619 -7.24 -5.397 -6.739 -6.071 -6.093 C -6.745 -5.446 -7.279 -4.629 -7.674 -3.64 C -8.067 -2.651 -8.265 -1.56 -8.265 -0.363 C -8.265 0.681 -8.064 1.666 -7.663 2.592 C -7.263 3.519 -6.72 4.315 -6.035 4.982 C -5.351 5.649 -4.53 6.179 -3.572 6.569 C -2.615 6.96 -1.601 7.155 -0.528 7.155 C 0.833 7.155 2.063 6.861 3.163 6.273 C 4.262 5.686 5.081 4.884 5.62 3.868 L 2.551 1.514 C 2.261 2.108 1.814 2.585 1.213 2.944 C 0.612 3.304 -0.021 3.484 -0.685 3.484 C -1.666 3.484 -2.473 3.11 -3.105 2.364 C -3.738 1.617 -4.055 0.66 -4.055 -0.509 C -4.055 -1.69 -3.734 -2.645 -3.096 -3.37 C -2.456 -4.097 -1.617 -4.459 -0.581 -4.459 C 0.602 -4.459 1.666 -3.965 2.613 -2.977 L 0 -2.977 Z" fill="rgb(255 255 255)" transform="matrix(1 0 0 1 430.2388 108.2836)"/>
  <path d="M 0 0 L 2.613 0 C 2.883 0 3.125 0.146 3.339 0.44 C 3.554 0.734 3.661 1.123 3.661 1.607 C 3.661 2.091 3.54 2.481 3.298 2.779 C 3.056 3.076 2.793 3.225 2.51 3.225 L 0 3.225 Z M -4.138 -8.244 L -4.138 6.833 L 2.79 6.833 C 3.502 6.833 4.179 6.682 4.822 6.377 C 5.465 6.073 6.004 5.676 6.439 5.185 C 6.875 4.693 7.221 4.136 7.477 3.51 C 7.732 2.884 7.86 2.25 7.86 1.607 C 7.86 0.736 7.669 -0.08 7.285 -0.84 C 6.901 -1.601 6.37 -2.22 5.693 -2.696 L 8.877 -8.244 L 4.335 -8.244 L 1.68 -3.619 L 0 -3.619 L 0 -8.244 Z" fill="rgb(255 255 255)" transform="matrix(1 0 0 1 446.8569 108.5014)"/>
  <path d="M 0 0 L -1.338 5.31 L -2.737 0 Z M -3.65 9.363 L 0.975 9.363 L 5.775 -5.714 L 1.576 -5.714 L 0.664 -2.759 L -3.36 -2.759 L -4.252 -5.714 L -8.472 -5.714 Z" fill="rgb(255 255 255)" transform="matrix(1 0 0 1 468.4409 105.9711)"/>
  <path d="M 0 0 C -0.366 -0.899 -1.036 -1.649 -2.012 -2.251 C -2.986 -2.852 -4.064 -3.242 -5.247 -3.422 C -4.556 -4.113 -4.21 -4.856 -4.21 -5.651 C -4.21 -6.329 -4.43 -6.899 -4.868 -7.363 C -5.308 -7.826 -5.945 -8.058 -6.781 -8.058 C -7.625 -8.058 -8.499 -7.815 -9.405 -7.332 L -8.472 -5.269 C -8.16 -5.538 -7.822 -5.673 -7.455 -5.673 C -7.192 -5.673 -6.979 -5.599 -6.812 -5.449 C -6.646 -5.301 -6.563 -5.099 -6.563 -4.843 C -6.563 -4.407 -6.833 -3.94 -7.372 -3.443 C -8.341 -3.325 -9.244 -3.023 -10.084 -2.536 C -10.924 -2.049 -11.629 -1.45 -12.199 -0.742 C -12.77 -0.033 -13.22 0.758 -13.548 1.633 C -13.876 2.508 -14.04 3.391 -14.04 4.282 C -14.04 5.209 -13.862 6.116 -13.506 7.005 C -13.15 7.893 -12.652 8.693 -12.013 9.405 C -11.374 10.117 -10.56 10.69 -9.571 11.126 C -8.582 11.562 -7.504 11.779 -6.336 11.779 C -4.918 11.779 -3.667 11.482 -2.582 10.888 C -1.496 10.293 -0.687 9.495 -0.155 8.492 L -3.318 6.242 C -3.456 6.595 -3.643 6.897 -3.878 7.149 C -4.113 7.402 -4.376 7.596 -4.666 7.73 C -4.956 7.865 -5.245 7.962 -5.532 8.021 C -5.818 8.079 -6.114 8.108 -6.418 8.108 C -6.985 8.108 -7.493 7.993 -7.942 7.762 C -8.393 7.529 -8.75 7.223 -9.016 6.839 C -9.282 6.455 -9.484 6.035 -9.623 5.578 C -9.761 5.122 -9.83 4.648 -9.83 4.158 C -9.83 3.059 -9.516 2.118 -8.887 1.337 C -8.258 0.556 -7.421 0.166 -6.377 0.166 C -5.969 0.166 -5.578 0.223 -5.205 0.337 C -4.832 0.451 -4.475 0.651 -4.132 0.938 C -3.79 1.225 -3.539 1.583 -3.38 2.012 Z" fill="rgb(255 255 255)" transform="matrix(1 0 0 1 492.314 103.6381)"/>
  <path d="M 0 0 L -1.338 5.31 L -2.737 0 Z M -2.717 11.365 C -2.896 11.365 -3.053 11.33 -3.184 11.262 C -3.315 11.192 -3.412 11.112 -3.474 11.022 C -3.536 10.933 -3.585 10.831 -3.619 10.717 C -3.653 10.603 -3.675 10.52 -3.682 10.468 C -3.688 10.416 -3.691 10.373 -3.691 10.339 L -5.838 10.339 C -5.838 10.504 -5.806 10.717 -5.739 10.977 C -5.674 11.235 -5.563 11.524 -5.408 11.842 C -5.252 12.16 -5.065 12.455 -4.848 12.729 C -4.63 13.002 -4.349 13.231 -4.003 13.418 C -3.657 13.604 -3.284 13.698 -2.883 13.698 C -2.571 13.698 -2.274 13.642 -1.991 13.527 C -1.708 13.413 -1.477 13.289 -1.296 13.154 C -1.116 13.019 -0.913 12.895 -0.685 12.78 C -0.456 12.666 -0.235 12.609 -0.021 12.609 C 0.152 12.609 0.308 12.646 0.446 12.719 C 0.584 12.791 0.687 12.876 0.757 12.973 C 0.826 13.069 0.883 13.175 0.928 13.289 C 0.973 13.402 1.002 13.492 1.017 13.559 C 1.03 13.624 1.037 13.671 1.037 13.698 L 3.163 13.698 C 3.163 13.581 3.128 13.401 3.059 13.159 C 2.99 12.917 2.876 12.632 2.717 12.304 C 2.558 11.976 2.367 11.667 2.146 11.381 C 1.925 11.094 1.635 10.849 1.275 10.645 C 0.916 10.44 0.532 10.339 0.124 10.339 C -0.166 10.339 -0.451 10.392 -0.731 10.499 C -1.011 10.606 -1.243 10.724 -1.426 10.852 C -1.609 10.979 -1.818 11.097 -2.054 11.204 C -2.288 11.312 -2.51 11.365 -2.717 11.365 M -3.65 9.363 L 0.975 9.363 L 5.775 -5.714 L 1.576 -5.714 L 0.664 -2.759 L -3.36 -2.759 L -4.252 -5.714 L -8.472 -5.714 Z" fill="rgb(255 255 255)" transform="matrix(1 0 0 1 504.9058 105.9711)"/>
  <path d="M 0 0 C 0.573 0 1.087 0.115 1.54 0.347 C 1.992 0.578 2.354 0.888 2.623 1.275 C 2.894 1.662 3.097 2.087 3.235 2.551 C 3.374 3.014 3.442 3.501 3.442 4.013 C 3.442 4.718 3.32 5.36 3.074 5.941 C 2.829 6.522 2.438 7.001 1.902 7.378 C 1.367 7.754 0.726 7.942 -0.021 7.942 C -0.595 7.942 -1.106 7.829 -1.556 7.601 C -2.005 7.372 -2.364 7.068 -2.634 6.688 C -2.903 6.308 -3.107 5.886 -3.246 5.423 C -3.384 4.96 -3.453 4.476 -3.453 3.971 C -3.453 3.453 -3.383 2.96 -3.24 2.493 C -3.099 2.026 -2.89 1.605 -2.613 1.229 C -2.337 0.852 -1.974 0.553 -1.524 0.331 C -1.075 0.11 -0.567 0 0 0 M -7.663 4.013 C -7.663 5.001 -7.47 5.957 -7.083 6.88 C -6.695 7.803 -6.167 8.613 -5.496 9.312 C -4.825 10.01 -4.008 10.568 -3.044 10.986 C -2.079 11.404 -1.051 11.613 0.041 11.613 C 1.147 11.613 2.185 11.395 3.152 10.955 C 4.12 10.516 4.927 9.936 5.573 9.213 C 6.22 8.49 6.729 7.67 7.098 6.75 C 7.468 5.831 7.653 4.891 7.653 3.93 C 7.653 2.948 7.461 1.997 7.077 1.078 C 6.693 0.158 6.168 -0.652 5.501 -1.354 C 4.834 -2.056 4.017 -2.617 3.049 -3.039 C 2.081 -3.461 1.051 -3.671 -0.041 -3.671 C -1.147 -3.671 -2.183 -3.453 -3.147 -3.018 C -4.111 -2.582 -4.919 -2.005 -5.568 -1.286 C -6.219 -0.567 -6.729 0.254 -7.104 1.177 C -7.477 2.1 -7.663 3.045 -7.663 4.013" fill="rgb(255 255 255)" transform="matrix(1 0 0 1 522.4019 103.8041)"/>
  <path d="M 0 0 L 0 -3.608 L -10.743 -3.608 L -10.743 11.469 L -0.187 11.469 L -0.187 7.86 L -6.605 7.86 L -6.605 5.734 L -1.12 5.734 L -1.12 2.386 L -6.605 2.386 L -6.605 0 Z" fill="rgb(255 255 255)" transform="matrix(1 0 0 1 555.8149 103.8656)"/>
  <path d="M 0 0 L -1.659 0 L -1.659 -7.86 L 0 -7.86 C 1.058 -7.86 1.889 -7.494 2.494 -6.761 C 3.099 -6.028 3.401 -5.077 3.401 -3.909 C 3.401 -2.728 3.097 -1.78 2.489 -1.068 C 1.881 -0.356 1.051 0 0 0 M -5.797 -11.469 L -5.797 3.608 L 0 3.608 C 1.217 3.608 2.314 3.413 3.293 3.022 C 4.271 2.632 5.069 2.093 5.687 1.405 C 6.307 0.718 6.78 -0.077 7.108 -0.979 C 7.437 -1.882 7.602 -2.858 7.602 -3.909 C 7.602 -6.19 6.908 -8.021 5.522 -9.4 C 4.136 -10.779 2.295 -11.469 0 -11.469 Z" fill="rgb(255 255 255)" transform="matrix(1 0 0 1 576.8052 111.726)"/>
  <path d="M 0 0 C 0.573 0 1.087 0.115 1.54 0.347 C 1.992 0.578 2.354 0.888 2.623 1.275 C 2.894 1.662 3.097 2.087 3.235 2.551 C 3.374 3.014 3.442 3.501 3.442 4.013 C 3.442 4.718 3.32 5.36 3.074 5.941 C 2.829 6.522 2.438 7.001 1.902 7.378 C 1.367 7.754 0.726 7.942 -0.021 7.942 C -0.595 7.942 -1.106 7.829 -1.556 7.601 C -2.005 7.372 -2.364 7.068 -2.634 6.688 C -2.903 6.308 -3.107 5.886 -3.246 5.423 C -3.384 4.96 -3.453 4.476 -3.453 3.971 C -3.453 3.453 -3.383 2.96 -3.24 2.493 C -3.099 2.026 -2.89 1.605 -2.613 1.229 C -2.337 0.852 -1.974 0.553 -1.524 0.331 C -1.075 0.11 -0.567 0 0 0 M -7.663 4.013 C -7.663 5.001 -7.47 5.957 -7.083 6.88 C -6.695 7.803 -6.167 8.613 -5.496 9.312 C -4.825 10.01 -4.008 10.568 -3.044 10.986 C -2.079 11.404 -1.051 11.613 0.041 11.613 C 1.147 11.613 2.185 11.395 3.152 10.955 C 4.12 10.516 4.927 9.936 5.573 9.213 C 6.22 8.49 6.729 7.67 7.098 6.75 C 7.468 5.831 7.653 4.891 7.653 3.93 C 7.653 2.948 7.461 1.997 7.077 1.078 C 6.693 0.158 6.168 -0.652 5.501 -1.354 C 4.834 -2.056 4.017 -2.617 3.049 -3.039 C 2.081 -3.461 1.051 -3.671 -0.041 -3.671 C -1.147 -3.671 -2.183 -3.453 -3.147 -3.018 C -4.111 -2.582 -4.919 -2.005 -5.568 -1.286 C -6.219 -0.567 -6.729 0.254 -7.104 1.177 C -7.477 2.1 -7.663 3.045 -7.663 4.013" fill="rgb(255 255 255)" transform="matrix(1 0 0 1 597.3267 103.8041)"/>
  <path d="M 0 0 L -1.672 0 L -1.672 -7.92 L 0 -7.92 C 1.065 -7.92 1.903 -7.551 2.513 -6.812 C 3.122 -6.074 3.427 -5.116 3.427 -3.939 C 3.427 -2.748 3.12 -1.794 2.508 -1.076 C 1.895 -0.358 1.059 0 0 0 M -5.841 -11.557 L -5.841 3.637 L 0 3.637 C 1.226 3.637 2.332 3.439 3.317 3.046 C 4.303 2.652 5.107 2.109 5.731 1.416 C 6.354 0.723 6.832 -0.078 7.163 -0.987 C 7.493 -1.896 7.659 -2.88 7.659 -3.939 C 7.659 -6.238 6.961 -8.082 5.564 -9.472 C 4.167 -10.861 2.313 -11.557 0 -11.557 Z" fill="rgb(255 255 255)" transform="matrix(1 0 0 1 343.7856 81.4662)"/>
  <path d="M 0 0 L 0 -3.637 L -10.825 -3.637 L -10.825 11.557 L -0.188 11.557 L -0.188 7.92 L -6.656 7.92 L -6.656 5.778 L -1.129 5.778 L -1.129 2.403 L -6.656 2.403 L -6.656 0 Z" fill="rgb(255 255 255)" transform="matrix(1 0 0 1 368.3687 73.5463)"/>
  <path d="M 0 0 C -0.062 0.035 -0.146 0.084 -0.251 0.146 C -0.355 0.209 -0.567 0.32 -0.888 0.481 C -1.208 0.642 -1.521 0.782 -1.828 0.904 C -2.135 1.026 -2.492 1.138 -2.899 1.238 C -3.307 1.34 -3.682 1.39 -4.022 1.39 C -4.838 1.39 -5.245 1.14 -5.245 0.638 C -5.245 0.526 -5.227 0.425 -5.187 0.335 C -5.149 0.244 -5.082 0.16 -4.984 0.084 C -4.887 0.007 -4.791 -0.059 -4.696 -0.114 C -4.603 -0.171 -4.458 -0.233 -4.263 -0.303 C -4.068 -0.372 -3.901 -0.428 -3.762 -0.47 C -3.622 -0.512 -3.41 -0.576 -3.124 -0.663 C -2.839 -0.75 -2.605 -0.821 -2.424 -0.878 C -1.812 -1.065 -1.29 -1.25 -0.862 -1.432 C -0.434 -1.612 -0.018 -1.834 0.387 -2.095 C 0.791 -2.356 1.114 -2.644 1.358 -2.957 C 1.603 -3.271 1.796 -3.648 1.938 -4.091 C 2.081 -4.533 2.152 -5.033 2.152 -5.59 C 2.152 -6.294 2.041 -6.928 1.818 -7.492 C 1.596 -8.056 1.301 -8.518 0.936 -8.876 C 0.569 -9.235 0.133 -9.533 -0.376 -9.77 C -0.885 -10.007 -1.405 -10.174 -1.938 -10.271 C -2.471 -10.369 -3.033 -10.418 -3.626 -10.418 C -4.72 -10.418 -5.865 -10.256 -7.063 -9.932 C -8.262 -9.607 -9.317 -9.178 -10.229 -8.642 L -8.433 -4.984 C -8.362 -5.033 -8.267 -5.094 -8.145 -5.167 C -8.023 -5.24 -7.772 -5.372 -7.393 -5.563 C -7.013 -5.756 -6.639 -5.925 -6.27 -6.07 C -5.9 -6.217 -5.463 -6.352 -4.958 -6.473 C -4.453 -6.595 -3.984 -6.656 -3.553 -6.656 C -2.744 -6.656 -2.341 -6.433 -2.341 -5.987 C -2.341 -5.82 -2.393 -5.672 -2.497 -5.543 C -2.602 -5.414 -2.775 -5.296 -3.02 -5.187 C -3.264 -5.08 -3.499 -4.989 -3.725 -4.916 C -3.951 -4.843 -4.271 -4.745 -4.687 -4.623 C -5.101 -4.502 -5.443 -4.396 -5.716 -4.305 C -7.081 -3.845 -8.065 -3.293 -8.667 -2.648 C -9.271 -2.004 -9.571 -1.135 -9.571 -0.042 C -9.571 0.773 -9.416 1.512 -9.106 2.174 C -8.797 2.836 -8.379 3.375 -7.853 3.793 C -7.326 4.211 -6.726 4.531 -6.05 4.755 C -5.374 4.978 -4.656 5.089 -3.897 5.089 C -2.274 5.089 -0.376 4.542 1.798 3.448 Z" fill="rgb(255 255 255)" transform="matrix(1 0 0 1 383.7974 80.1391)"/>
  <path d="M 0 0 L 0 -3.637 L -10.825 -3.637 L -10.825 11.557 L -0.188 11.557 L -0.188 7.92 L -6.656 7.92 L -6.656 5.778 L -1.129 5.778 L -1.129 2.403 L -6.656 2.403 L -6.656 0 Z" fill="rgb(255 255 255)" transform="matrix(1 0 0 1 402.895 73.5463)"/>
  <path d="M 0 0 L 0 -7.471 L -4.169 -7.471 L -4.169 7.723 L -0.92 7.723 L 5.183 0 L 5.183 7.723 L 9.352 7.723 L 9.352 -7.471 L 6.039 -7.471 Z" fill="rgb(255 255 255)" transform="matrix(1 0 0 1 413.2876 77.3803)"/>
  <path d="M 0 0 L 2.968 -10.376 L 5.904 0 L 10.293 0 L 5.047 -15.193 L 0.898 -15.193 L -4.409 0 Z" fill="rgb(255 255 255)" transform="matrix(1 0 0 1 432.4937 85.103)"/>
  <path d="M 0 0 C 0.578 0 1.095 0.117 1.552 0.351 C 2.008 0.584 2.372 0.896 2.644 1.286 C 2.915 1.676 3.12 2.104 3.26 2.571 C 3.399 3.037 3.469 3.528 3.469 4.044 C 3.469 4.755 3.345 5.402 3.098 5.987 C 2.851 6.573 2.457 7.056 1.917 7.435 C 1.377 7.814 0.731 8.005 -0.021 8.005 C -0.6 8.005 -1.115 7.89 -1.567 7.659 C -2.021 7.43 -2.383 7.123 -2.654 6.74 C -2.926 6.357 -3.132 5.932 -3.271 5.466 C -3.41 4.999 -3.479 4.511 -3.479 4.003 C -3.479 3.479 -3.408 2.983 -3.266 2.514 C -3.123 2.043 -2.912 1.618 -2.634 1.238 C -2.354 0.858 -1.989 0.558 -1.536 0.335 C -1.083 0.111 -0.571 0 0 0 M -7.722 4.044 C -7.722 5.04 -7.527 6.004 -7.137 6.934 C -6.747 7.863 -6.214 8.68 -5.538 9.384 C -4.862 10.087 -4.039 10.649 -3.067 11.071 C -2.096 11.493 -1.06 11.703 0.042 11.703 C 1.156 11.703 2.201 11.482 3.177 11.04 C 4.151 10.598 4.965 10.013 5.616 9.284 C 6.268 8.557 6.779 7.729 7.152 6.803 C 7.524 5.876 7.711 4.929 7.711 3.961 C 7.711 2.972 7.518 2.014 7.132 1.087 C 6.745 0.16 6.215 -0.656 5.543 -1.363 C 4.871 -2.07 4.047 -2.637 3.072 -3.062 C 2.097 -3.486 1.059 -3.698 -0.042 -3.698 C -1.156 -3.698 -2.2 -3.479 -3.172 -3.04 C -4.144 -2.602 -4.957 -2.02 -5.611 -1.295 C -6.267 -0.571 -6.782 0.257 -7.158 1.187 C -7.534 2.116 -7.722 3.069 -7.722 4.044" fill="rgb(255 255 255)" transform="matrix(1 0 0 1 454.4839 73.4828)"/>
  <path d="M 0 0 L 0 15.193 L 4.169 15.193 L 4.169 3.637 L 11.065 3.637 L 11.065 0 Z" fill="rgb(255 255 255)" transform="matrix(1 0 0 1 468.2495 69.9096)"/>
  <path d="M 0 0 L 2.968 -10.376 L 5.904 0 L 10.293 0 L 5.047 -15.193 L 0.898 -15.193 L -4.409 0 Z" fill="rgb(255 255 255)" transform="matrix(1 0 0 1 486.2075 85.103)"/>
  <path d="M 501.93 85.103 L 506.099 85.103 L 506.099 69.91 L 501.93 69.91 Z" fill="rgb(255 255 255)" transform="matrix(1 0 0 1 0 0)"/>
  <path d="M 0 0 L 0 8.004 L -2.55 2.372 L -4.775 2.372 L -7.325 8.004 L -7.325 0 L -11.494 0 L -11.494 15.193 L -6.938 15.193 L -3.668 8.046 L -0.366 15.193 L 4.169 15.193 L 4.169 0 Z" fill="rgb(255 255 255)" transform="matrix(1 0 0 1 524.4907 69.9096)"/>
  <path d="M 0 0 L 0 -3.637 L -10.825 -3.637 L -10.825 11.557 L -0.188 11.557 L -0.188 7.92 L -6.656 7.92 L -6.656 5.778 L -1.129 5.778 L -1.129 2.403 L -6.656 2.403 L -6.656 0 Z" fill="rgb(255 255 255)" transform="matrix(1 0 0 1 546.3345 73.5463)"/>
  <path d="M 0 0 L 0 -7.471 L -4.169 -7.471 L -4.169 7.723 L -0.92 7.723 L 5.183 0 L 5.183 7.723 L 9.352 7.723 L 9.352 -7.471 L 6.039 -7.471 Z" fill="rgb(255 255 255)" transform="matrix(1 0 0 1 556.7271 77.3803)"/>
  <path d="M 0 0 L -4.357 0 L -4.357 -11.557 L -8.537 -11.557 L -8.537 0 L -12.926 0 L -12.926 3.637 L 0 3.637 Z" fill="rgb(255 255 255)" transform="matrix(1 0 0 1 584.8091 81.4662)"/>
  <path d="M 0 0 C 0.578 0 1.095 0.117 1.552 0.351 C 2.008 0.584 2.372 0.896 2.644 1.286 C 2.915 1.676 3.12 2.104 3.26 2.571 C 3.399 3.037 3.469 3.528 3.469 4.044 C 3.469 4.755 3.345 5.402 3.098 5.987 C 2.851 6.573 2.457 7.056 1.917 7.435 C 1.377 7.814 0.731 8.005 -0.021 8.005 C -0.6 8.005 -1.115 7.89 -1.567 7.659 C -2.021 7.43 -2.383 7.123 -2.654 6.74 C -2.926 6.357 -3.132 5.932 -3.271 5.466 C -3.41 4.999 -3.479 4.511 -3.479 4.003 C -3.479 3.479 -3.408 2.983 -3.266 2.514 C -3.123 2.043 -2.912 1.618 -2.634 1.238 C -2.354 0.858 -1.989 0.558 -1.536 0.335 C -1.083 0.111 -0.571 0 0 0 M -7.722 4.044 C -7.722 5.04 -7.527 6.004 -7.137 6.934 C -6.747 7.863 -6.214 8.68 -5.538 9.384 C -4.862 10.087 -4.039 10.649 -3.067 11.071 C -2.096 11.493 -1.06 11.703 0.042 11.703 C 1.156 11.703 2.201 11.482 3.177 11.04 C 4.151 10.598 4.965 10.013 5.616 9.284 C 6.268 8.557 6.779 7.729 7.152 6.803 C 7.524 5.876 7.711 4.929 7.711 3.961 C 7.711 2.972 7.518 2.014 7.132 1.087 C 6.745 0.16 6.215 -0.656 5.543 -1.363 C 4.871 -2.07 4.047 -2.637 3.072 -3.062 C 2.097 -3.486 1.059 -3.698 -0.042 -3.698 C -1.156 -3.698 -2.2 -3.479 -3.172 -3.04 C -4.144 -2.602 -4.957 -2.02 -5.611 -1.295 C -6.267 -0.571 -6.782 0.257 -7.158 1.187 C -7.534 2.116 -7.722 3.069 -7.722 4.044" fill="rgb(255 255 255)" transform="matrix(1 0 0 1 597.2222 73.4828)"/>
  <path d="M 0 0 L 2.633 0 C 2.904 0 3.148 0.148 3.364 0.444 C 3.58 0.74 3.688 1.133 3.688 1.62 C 3.688 2.107 3.566 2.501 3.322 2.801 C 3.079 3.101 2.814 3.25 2.528 3.25 L 0 3.25 Z M -4.169 -8.307 L -4.169 6.887 L 2.811 6.887 C 3.528 6.887 4.211 6.733 4.858 6.427 C 5.507 6.12 6.05 5.72 6.489 5.225 C 6.928 4.73 7.276 4.168 7.534 3.537 C 7.791 2.907 7.92 2.268 7.92 1.62 C 7.92 0.742 7.727 -0.08 7.341 -0.846 C 6.954 -1.612 6.419 -2.235 5.736 -2.717 L 8.944 -8.307 L 4.367 -8.307 L 1.692 -3.646 L 0 -3.646 L 0 -8.307 Z" fill="rgb(255 255 255)" transform="matrix(1 0 0 1 471.605 47.9779)"/>
  <path d="M 0 0 L 0 -3.637 L -10.825 -3.637 L -10.825 11.557 L -0.188 11.557 L -0.188 7.92 L -6.656 7.92 L -6.656 5.778 L -1.129 5.778 L -1.129 2.403 L -6.656 2.403 L -6.656 0 Z" fill="rgb(255 255 255)" transform="matrix(1 0 0 1 496.9858 43.308)"/>
  <path d="M 0 0 L 6.248 0 L 6.248 -8.088 L 2.8 -8.088 L 2.8 -6.823 C 1.728 -7.736 0.48 -8.192 -0.94 -8.192 C -1.937 -8.192 -2.879 -8.013 -3.768 -7.654 C -4.655 -7.296 -5.439 -6.791 -6.118 -6.139 C -6.798 -5.488 -7.336 -4.664 -7.732 -3.668 C -8.13 -2.672 -8.328 -1.571 -8.328 -0.366 C -8.328 0.686 -8.126 1.679 -7.722 2.612 C -7.318 3.546 -6.771 4.349 -6.082 5.021 C -5.392 5.692 -4.564 6.226 -3.6 6.619 C -2.635 7.013 -1.613 7.21 -0.533 7.21 C 0.839 7.21 2.079 6.914 3.187 6.321 C 4.294 5.729 5.12 4.922 5.663 3.897 L 2.57 1.525 C 2.277 2.124 1.828 2.605 1.223 2.968 C 0.616 3.329 -0.021 3.511 -0.689 3.511 C -1.679 3.511 -2.492 3.135 -3.13 2.382 C -3.768 1.63 -4.086 0.665 -4.086 -0.512 C -4.086 -1.703 -3.764 -2.665 -3.119 -3.396 C -2.475 -4.128 -1.63 -4.493 -0.585 -4.493 C 0.605 -4.493 1.679 -3.995 2.633 -2.999 L 0 -2.999 Z" fill="rgb(255 255 255)" transform="matrix(1 0 0 1 510.4722 47.7592)"/>
  <path d="M 523.049 54.865 L 527.218 54.865 L 527.218 39.672000000000004 L 523.049 39.672000000000004 Z" fill="rgb(255 255 255)" transform="matrix(1 0 0 1 0 0)"/>
  <path d="M 0 0 C 0.578 0 1.095 0.117 1.552 0.351 C 2.008 0.584 2.372 0.896 2.644 1.286 C 2.915 1.676 3.12 2.104 3.26 2.571 C 3.399 3.037 3.469 3.528 3.469 4.044 C 3.469 4.755 3.345 5.402 3.098 5.987 C 2.851 6.573 2.457 7.056 1.917 7.435 C 1.377 7.814 0.731 8.005 -0.021 8.005 C -0.6 8.005 -1.115 7.89 -1.567 7.659 C -2.021 7.43 -2.383 7.123 -2.654 6.74 C -2.926 6.357 -3.132 5.932 -3.271 5.466 C -3.41 4.999 -3.479 4.511 -3.479 4.003 C -3.479 3.479 -3.408 2.983 -3.266 2.514 C -3.123 2.043 -2.912 1.618 -2.634 1.238 C -2.354 0.858 -1.989 0.558 -1.536 0.335 C -1.083 0.111 -0.571 0 0 0 M -7.722 4.044 C -7.722 5.04 -7.527 6.004 -7.137 6.934 C -6.747 7.863 -6.214 8.68 -5.538 9.384 C -4.862 10.087 -4.039 10.649 -3.067 11.071 C -2.096 11.493 -1.06 11.703 0.042 11.703 C 1.156 11.703 2.201 11.482 3.177 11.04 C 4.151 10.598 4.965 10.013 5.616 9.284 C 6.268 8.557 6.779 7.729 7.152 6.803 C 7.524 5.876 7.711 4.929 7.711 3.961 C 7.711 2.972 7.518 2.014 7.132 1.087 C 6.745 0.16 6.215 -0.656 5.543 -1.363 C 4.871 -2.07 4.047 -2.637 3.072 -3.062 C 2.097 -3.486 1.059 -3.698 -0.042 -3.698 C -1.156 -3.698 -2.2 -3.479 -3.172 -3.04 C -4.144 -2.602 -4.957 -2.02 -5.611 -1.295 C -6.267 -0.571 -6.782 0.257 -7.158 1.187 C -7.534 2.116 -7.722 3.069 -7.722 4.044" fill="rgb(255 255 255)" transform="matrix(1 0 0 1 540.9966 43.2445)"/>
  <path d="M 0 0 L 0 -7.471 L -4.169 -7.471 L -4.169 7.723 L -0.92 7.723 L 5.183 0 L 5.183 7.723 L 9.352 7.723 L 9.352 -7.471 L 6.039 -7.471 Z" fill="rgb(255 255 255)" transform="matrix(1 0 0 1 558.9233 47.142)"/>
  <path d="M 0 0 L -1.348 5.35 L -2.759 0 Z M -3.678 9.436 L 0.982 9.436 L 5.82 -5.758 L 1.589 -5.758 L 0.669 -2.779 L -3.386 -2.779 L -4.284 -5.758 L -8.537 -5.758 Z" fill="rgb(255 255 255)" transform="matrix(1 0 0 1 582.356 45.4291)"/>
  <path d="M 0 0 L 0 15.193 L 4.169 15.193 L 4.169 3.637 L 11.065 3.637 L 11.065 0 Z" fill="rgb(255 255 255)" transform="matrix(1 0 0 1 593.7388 39.6713)"/>
  </g>
</svg>
