<!-- sprite.svg -->
<svg xmlns="http://www.w3.org/2000/svg" xmlns:xlink="http://www.w3.org/1999/xlink">
    <defs>
        <symbol viewBox="0 0 374 374" id="logo-datane">
            <image href="logo-datane.png" width="374" height="374" />
        </symbol>
        <symbol viewBox="0 0 18 18" id="instagram">
            <path
                d="M1 5C1 3.93913 1.42143 2.92172 2.17157 2.17157C2.92172 1.42143 3.93913 1 5 1H13C14.0609 1 15.0783 1.42143 15.8284 2.17157C16.5786 2.92172 17 3.93913 17 5V13C17 14.0609 16.5786 15.0783 15.8284 15.8284C15.0783 16.5786 14.0609 17 13 17H5C3.93913 17 2.92172 16.5786 2.17157 15.8284C1.42143 15.0783 1 14.0609 1 13V5Z"
                stroke="white" stroke-width="2" stroke-linecap="round" stroke-linejoin="round" />
            <path
                d="M6 9C6 9.79565 6.31607 10.5587 6.87868 11.1213C7.44129 11.6839 8.20435 12 9 12C9.79565 12 10.5587 11.6839 11.1213 11.1213C11.6839 10.5587 12 9.79565 12 9C12 8.20435 11.6839 7.44129 11.1213 6.87868C10.5587 6.31607 9.79565 6 9 6C8.20435 6 7.44129 6.31607 6.87868 6.87868C6.31607 7.44129 6 8.20435 6 9Z"
                stroke="white" stroke-width="2" stroke-linecap="round" stroke-linejoin="round" />
            <path d="M13.5 4.5V4.51" stroke="white" stroke-width="2" stroke-linecap="round"
                stroke-linejoin="round" />
        </symbol>

        <symbol viewBox="0 0 22 18" id="youtube">
            <path
                d="M1 5C1 3.93913 1.42143 2.92172 2.17157 2.17157C2.92172 1.42143 3.93913 1 5 1H17C18.0609 1 19.0783 1.42143 19.8284 2.17157C20.5786 2.92172 21 3.93913 21 5V13C21 14.0609 20.5786 15.0783 19.8284 15.8284C19.0783 16.5786 18.0609 17 17 17H5C3.93913 17 2.92172 16.5786 2.17157 15.8284C1.42143 15.0783 1 14.0609 1 13V5Z"
                stroke="white" stroke-width="2" stroke-linecap="round" stroke-linejoin="round" />
            <path d="M9 6L14 9L9 12V6Z" stroke="white" stroke-width="2" stroke-linecap="round"
                stroke-linejoin="round" />
        </symbol>

        <symbol viewBox="0 0 13 20" id="facebook">
            <path
                d="M1 8V12H4V19H8V12H11L12 8H8V6C8 5.73478 8.10536 5.48043 8.29289 5.29289C8.48043 5.10536 8.73478 5 9 5H12V1H9C7.67392 1 6.40215 1.52678 5.46447 2.46447C4.52678 3.40215 4 4.67392 4 6V8H1Z"
                stroke="white" stroke-width="2" stroke-linecap="round" stroke-linejoin="round" />
        </symbol>
        <symbol viewBox="0 0 25 21" id="retract">
            <path fill-rule="evenodd" clip-rule="evenodd"
                d="M23.4012 21C23.0708 21 22.7341 20.8971 22.4355 20.6703L10.7927 11.76C10.4031 11.4618 10.1765 11.0019 10.1765 10.5189C10.1765 10.0317 10.4009 9.5739 10.7906 9.2757C11.6684 8.60157 12.8364 7.70442 14.1269 6.71314C16.8808 4.59791 20.1927 2.05406 22.4334 0.333899C22.732 0.104998 23.0687 0 23.4012 0C24.2228 0 25 0.640499 25 1.575L25 19.4271C25 20.3574 24.2249 21 23.4012 21ZM23.0588 18.6952L23.0588 2.31741L15.7362 8.00888V13.0154L23.0588 18.6952ZM13.795 11.5097V9.51765L12.5122 10.5147L13.795 11.5097ZM15.7362 1.575V5.00338L13.795 6.49438V2.31741L3.24845 10.5147L13.795 18.6952V14.5297L15.7362 16.0153V19.4271C15.7362 20.3574 14.9612 21 14.1374 21C13.807 21 13.4703 20.8971 13.1717 20.6703L1.52892 11.76C1.13927 11.4618 0.912685 11.0019 0.912685 10.5189C0.912685 10.0317 1.13715 9.5739 1.5268 9.2757L4.86316 6.71314L4.86925 6.70847C7.6219 4.59416 10.9305 2.0528 13.1696 0.333899C13.4682 0.104998 13.8049 0 14.1374 0C14.959 0 15.7362 0.640499 15.7362 1.575Z"
                fill="#738F44" />
        </symbol>
        <symbol viewBox="0 0 31 31" id="modal-button">
            <path
                d="M25.8571 0H5C2.23858 0 0 2.23858 0 5V25.8571C0 28.6185 2.23858 30.8571 5 30.8571H25.8571C28.6185 30.8571 30.8571 28.6185 30.8571 25.8571V5C30.8571 2.23858 28.6185 0 25.8571 0Z"
                fill="white" />
            <path
                d="M16.5307 20.6991C16.5307 20.2627 16.1604 19.9085 15.7041 19.9085H5.2347C4.7785 19.9085 4.4082 20.2627 4.4082 20.6991C4.4082 21.1355 4.7785 21.4897 5.2347 21.4897H15.7041C16.1604 21.4897 16.5307 21.1355 16.5307 20.6991ZM26.449 15.4285C26.449 14.992 26.0787 14.6379 25.6225 14.6379H5.2347C4.7785 14.6379 4.4082 14.992 4.4082 15.4285C4.4082 15.8649 4.7785 16.2191 5.2347 16.2191H25.6225C26.0787 16.2191 26.449 15.8649 26.449 15.4285ZM22.0409 10.1578C22.0409 9.72139 21.6706 9.36719 21.2143 9.36719H5.2347C4.7785 9.36719 4.4082 9.72139 4.4082 10.1578C4.4082 10.5942 4.7785 10.9484 5.2347 10.9484H21.2143C21.6706 10.9484 22.0409 10.5942 22.0409 10.1578Z"
                fill="black" />
        </symbol>
         <symbol  viewBox="0 0 18 11" id="expand" fill="none">
            <path d="M1.85789 1.99998L8.92896 9.07104L16 1.99998" stroke="currentColor" stroke-width="3" stroke-linecap="round" stroke-linejoin="round"/>
        </symbol>


        <defs>
            <symbol viewBox="0 0 311 100" id="logo-sudene">
                <image href="/logo-sudene.png" width="311" height="100" />
            </symbol>
        </defs>
        <use href="/public/logo-sudene" />

        <symbol viewBox="0 0 18 18" id="link-arrow">
            <path
                d="M9 3H3C2.46957 3 1.96086 3.21071 1.58579 3.58579C1.21071 3.96086 1 4.46957 1 5V15C1 15.5304 1.21071 16.0391 1.58579 16.4142C1.96086 16.7893 2.46957 17 3 17H13C13.5304 17 14.0391 16.7893 14.4142 16.4142C14.7893 16.0391 15 15.5304 15 15V9"
                stroke="currentColor"
                stroke-width="2"
                stroke-linecap="round"
                stroke-linejoin="round"
                fill="none"
            />
            <path
                d="M8 10L17 1"
                stroke="currentColor"
                stroke-width="2"
                stroke-linecap="round"
                stroke-linejoin="round"
                fill="none"
            />
            <path
                d="M12 1H17V6"
                stroke="currentColor"
                stroke-width="2"
                stroke-linecap="round"
                stroke-linejoin="round"
                fill="none"
            />
        </symbol>

        <symbol id="loading" viewBox="0 0 24 24" stroke-width="1.5" stroke="currentColor"
            fill="none" stroke-linecap="round" stroke-linejoin="round">
            <path stroke="none" d="M0 0h24v24H0z" fill="none" />
            <path d="M12 3a9 9 0 1 0 9 9" />
        </symbol>
        <symbol stroke-width="2" id="filter" viewBox="0 0 17 17" fill="none" xmlns="http://www.w3.org/2000/svg">
            <path d="M1.0293 0.5H16.0293V2.54424C16.0292 3.04343 15.8316 3.52213 15.4799 3.87506L11.3418 8.02941V14.6176L5.7168 16.5V8.5L1.5168 3.86188C1.20315 3.51546 1.02935 3.06414 1.0293 2.596V0.5Z" stroke="currentColor" stroke-linecap="round" stroke-linejoin="round"/>
        </symbol>
        <symbol id="order" viewBox="0 0 20 15" fill="none" xmlns="http://www.w3.org/2000/svg">
            <path d="M0.514648 4.5L4.51465 0.5M4.51465 0.5L8.51465 4.5M4.51465 0.5V14.5" stroke="currentColor" stroke-linecap="round" stroke-linejoin="round"/>
            <path d="M18.5146 10.5L14.5146 14.5M14.5146 14.5L10.5146 10.5M14.5146 14.5V0.5" stroke="currentColor" stroke-linecap="round" stroke-linejoin="round"/>
        </symbol>
        <symbol
            viewBox="0 0 24 24"
            fill="none"
            stroke="currentColor"
            stroke-width="2"
            stroke-linecap="round"
            stroke-linejoin="round"
            id="close"
            >
            <path d="M18 6l-12 12" />
            <path d="M6 6l12 12" />
        </symbol>
        <symbol id="reset" viewBox="0 0 24 24" fill="none" stroke="currentColor" stroke-linecap="round" stroke-linejoin="round" stroke-width="2">
            <path d="M19.95 11a8 8 0 1 0 -.5 4m.5 5v-5h-5"></path>
        </symbol>
        <symbol id="no-mail" viewBox="0 0 24 24" fill="none" stroke="currentColor" stroke-linecap="round" stroke-linejoin="round" stroke-width="2">
            <path d="M10 21v-6.5a3.5 3.5 0 0 0 -7 0v6.5h18m0 -4v-2a4 4 0 0 0 -4 -4h-2m-4 0h-4.5"></path>
            <path d="M12 8v-5h4l2 2l-2 2h-4"></path>
            <path d="M6 15h1"></path>
            <path d="M3 3l18 18"></path>
        </symbol>
        <symbol id="money" viewBox="0 0 11 18" fill="none" xmlns="http://www.w3.org/2000/svg">
            <path d="M5.79995 7.9C3.52995 7.31 2.79995 6.7 2.79995 5.75C2.79995 4.66 3.80995 3.9 5.49995 3.9C7.27995 3.9 7.93995 4.75 7.99995 6H10.2099C10.1399 4.28 9.08995 2.7 6.99995 2.19V0H3.99995V2.16C2.05995 2.58 0.499946 3.84 0.499946 5.77C0.499946 8.08 2.40995 9.23 5.19995 9.9C7.69995 10.5 8.19995 11.38 8.19995 12.31C8.19995 13 7.70995 14.1 5.49995 14.1C3.43995 14.1 2.62995 13.18 2.51995 12H0.319946C0.439946 14.19 2.07995 15.42 3.99995 15.83V18H6.99995V15.85C8.94995 15.48 10.4999 14.35 10.4999 12.3C10.4999 9.46 8.06995 8.49 5.79995 7.9Z" fill="currentColor"/>
        </symbol>
        <symbol id="screwdriver" viewBox="0 0 20 21" fill="none" xmlns="http://www.w3.org/2000/svg">
            <path d="M17.275 18.7999L17.975 18.0999L10 10.1249C10.3167 9.74159 10.5627 9.30826 10.738 8.82493C10.9127 8.34159 11 7.83326 11 7.29993C11 6.04993 10.5627 4.99159 9.68802 4.12493C8.81269 3.25826 7.75002 2.82493 6.50002 2.82493H6.25002L9.32502 5.89993L5.07502 10.1249L2.00002 7.04993V7.32493C2.00002 8.57493 2.43736 9.63326 3.31202 10.4999C4.18736 11.3666 5.25002 11.7999 6.50002 11.7999C7.03336 11.7999 7.53769 11.7123 8.01302 11.5369C8.48769 11.3623 8.91669 11.1166 9.30002 10.7999L17.275 18.7999ZM15.875 20.2249L8.97503 13.3249C8.59169 13.4749 8.19602 13.5916 7.78802 13.6749C7.37936 13.7583 6.95836 13.7999 6.52502 13.7999C4.70836 13.7999 3.17102 13.1706 1.91302 11.9119C0.654358 10.6539 0.0250244 9.11659 0.0250244 7.29993C0.0250244 6.59993 0.129358 5.92493 0.338024 5.27493C0.546024 4.62493 0.850024 4.02493 1.25002 3.47493L5.07502 7.29993L6.50002 5.89993L2.67502 2.04993C3.24169 1.63326 3.85002 1.32059 4.50002 1.11193C5.15002 0.903927 5.81669 0.799927 6.50002 0.799927C8.31669 0.799927 9.85436 1.42893 11.113 2.68693C12.371 3.94559 13 5.48326 13 7.29993C13 7.73326 12.9584 8.16226 12.875 8.58693C12.7917 9.01226 12.6667 9.41659 12.5 9.79993L19.375 16.6749C19.7584 17.0583 19.9544 17.5289 19.963 18.0869C19.971 18.6456 19.7834 19.1166 19.4 19.4999L18.725 20.1999C18.3417 20.5999 17.8707 20.8039 17.312 20.8119C16.754 20.8206 16.275 20.6249 15.875 20.2249Z" fill="currentColor"/>
        </symbol>
        <symbol id="drop" viewBox="0 0 16 20" fill="none" xmlns="http://www.w3.org/2000/svg">
            <path d="M8 0C2.67 4.55 0 8.48 0 11.8C0 16.78 3.8 20 8 20C12.2 20 16 16.78 16 11.8C16 8.48 13.33 4.55 8 0ZM8 18C4.65 18 2 15.43 2 11.8C2 9.46 3.95 6.36 8 2.66C12.05 6.36 14 9.45 14 11.8C14 15.43 11.35 18 8 18ZM3.83 12C4.2 12 4.5 12.26 4.57 12.62C4.98 14.84 6.85 15.6 8.21 15.49C8.64 15.47 9 15.81 9 16.24C9 16.64 8.68 16.97 8.28 16.99C6.15 17.12 3.66 15.9 3.09 12.87C3.01 12.42 3.37 12 3.83 12Z" fill="currentColor"/>
        </symbol>

        <symbol id="user" viewBox="0 0 20 14" fill="none" xmlns="http://www.w3.org/2000/svg">
            <path d="M7 8.75C4.66 8.75 0 9.92 0 12.25V14H14V12.25C14 9.92 9.34 8.75 7 8.75ZM2.34 12C3.18 11.42 5.21 10.75 7 10.75C8.79 10.75 10.82 11.42 11.66 12H2.34ZM7 7C8.93 7 10.5 5.43 10.5 3.5C10.5 1.57 8.93 0 7 0C5.07 0 3.5 1.57 3.5 3.5C3.5 5.43 5.07 7 7 7ZM7 2C7.83 2 8.5 2.67 8.5 3.5C8.5 4.33 7.83 5 7 5C6.17 5 5.5 4.33 5.5 3.5C5.5 2.67 6.17 2 7 2ZM14.04 8.81C15.2 9.65 16 10.77 16 12.25V14H20V12.25C20 10.23 16.5 9.08 14.04 8.81ZM13 7C14.93 7 16.5 5.43 16.5 3.5C16.5 1.57 14.93 0 13 0C12.46 0 11.96 0.13 11.5 0.35C12.13 1.24 12.5 2.33 12.5 3.5C12.5 4.67 12.13 5.76 11.5 6.65C11.96 6.87 12.46 7 13 7Z" fill="currentColor"/>
        </symbol>
        <symbol id="health" viewBox="0 0 18 18" fill="none" xmlns="http://www.w3.org/2000/svg">
            <path d="M16 0H2C0.9 0 0.00999999 0.9 0.00999999 2L0 16C0 17.1 0.9 18 2 18H16C17.1 18 18 17.1 18 16V2C18 0.9 17.1 0 16 0ZM16 16H2V2H16V16ZM7.5 14H10.5V10.5H14V7.5H10.5V4H7.5V7.5H4V10.5H7.5V14Z" fill="currentColor"/>
        </symbol>
        <symbol id="book" viewBox="0 0 22 16" fill="none" xmlns="http://www.w3.org/2000/svg">
            <path d="M13 5.9V4.2C13.55 3.96667 14.1127 3.79167 14.688 3.675C15.2627 3.55833 15.8667 3.5 16.5 3.5C16.9333 3.5 17.3583 3.53333 17.775 3.6C18.1917 3.66667 18.6 3.75 19 3.85V5.45C18.6 5.3 18.196 5.18767 17.788 5.113C17.3793 5.03767 16.95 5 16.5 5C15.8667 5 15.2583 5.07933 14.675 5.238C14.0917 5.396 13.5333 5.61667 13 5.9ZM13 11.4V9.7C13.55 9.46667 14.1127 9.29167 14.688 9.175C15.2627 9.05833 15.8667 9 16.5 9C16.9333 9 17.3583 9.03333 17.775 9.1C18.1917 9.16667 18.6 9.25 19 9.35V10.95C18.6 10.8 18.196 10.6877 17.788 10.613C17.3793 10.5377 16.95 10.5 16.5 10.5C15.8667 10.5 15.2583 10.575 14.675 10.725C14.0917 10.875 13.5333 11.1 13 11.4ZM13 8.65V6.95C13.55 6.71667 14.1127 6.54167 14.688 6.425C15.2627 6.30833 15.8667 6.25 16.5 6.25C16.9333 6.25 17.3583 6.28333 17.775 6.35C18.1917 6.41667 18.6 6.5 19 6.6V8.2C18.6 8.05 18.196 7.93767 17.788 7.863C17.3793 7.78767 16.95 7.75 16.5 7.75C15.8667 7.75 15.2583 7.82933 14.675 7.988C14.0917 8.146 13.5333 8.36667 13 8.65ZM5.5 12C6.28333 12 7.046 12.0873 7.788 12.262C8.52933 12.4373 9.26667 12.7 10 13.05V3.2C9.31667 2.8 8.59167 2.5 7.825 2.3C7.05833 2.1 6.28333 2 5.5 2C4.9 2 4.30433 2.05833 3.713 2.175C3.121 2.29167 2.55 2.46667 2 2.7V12.6C2.58333 12.4 3.16267 12.25 3.738 12.15C4.31267 12.05 4.9 12 5.5 12ZM12 13.05C12.7333 12.7 13.471 12.4373 14.213 12.262C14.9543 12.0873 15.7167 12 16.5 12C17.1 12 17.6877 12.05 18.263 12.15C18.8377 12.25 19.4167 12.4 20 12.6V2.7C19.45 2.46667 18.8793 2.29167 18.288 2.175C17.696 2.05833 17.1 2 16.5 2C15.7167 2 14.9417 2.1 14.175 2.3C13.4083 2.5 12.6833 2.8 12 3.2V13.05ZM11 16C10.2 15.3667 9.33333 14.875 8.4 14.525C7.46667 14.175 6.5 14 5.5 14C4.8 14 4.11267 14.0917 3.438 14.275C2.76267 14.4583 2.11667 14.7167 1.5 15.05C1.15 15.2333 0.812667 15.225 0.488 15.025C0.162667 14.825 0 14.5333 0 14.15V2.1C0 1.91667 0.046 1.74167 0.138 1.575C0.229333 1.40833 0.366667 1.28333 0.55 1.2C1.31667 0.8 2.11667 0.5 2.95 0.3C3.78333 0.1 4.63333 0 5.5 0C6.46667 0 7.41267 0.125 8.338 0.375C9.26267 0.625 10.15 1 11 1.5C11.85 1 12.7377 0.625 13.663 0.375C14.5877 0.125 15.5333 0 16.5 0C17.3667 0 18.2167 0.1 19.05 0.3C19.8833 0.5 20.6833 0.8 21.45 1.2C21.6333 1.28333 21.771 1.40833 21.863 1.575C21.9543 1.74167 22 1.91667 22 2.1V14.15C22 14.5333 21.8377 14.825 21.513 15.025C21.1877 15.225 20.85 15.2333 20.5 15.05C19.8833 14.7167 19.2373 14.4583 18.562 14.275C17.8873 14.0917 17.2 14 16.5 14C15.5 14 14.5333 14.175 13.6 14.525C12.6667 14.875 11.8 15.3667 11 16Z" fill="currentColor"/>
        </symbol>
        <symbol id="leaf" viewBox="0 0 16 17" fill="none" xmlns="http://www.w3.org/2000/svg">
            <path d="M8 16.9001C7.06667 16.9001 6.18767 16.7541 5.363 16.4621C4.53767 16.1708 3.78333 15.7585 3.1 15.2251L1.7 16.6001C1.51667 16.7835 1.28333 16.8751 1 16.8751C0.716667 16.8751 0.483334 16.7835 0.3 16.6001C0.116667 16.4168 0.0250001 16.1835 0.0250001 15.9001C0.0250001 15.6168 0.116667 15.3835 0.3 15.2001L1.675 13.8251C1.14167 13.1418 0.729334 12.3835 0.438 11.5501C0.146 10.7168 0 9.83348 0 8.90015C0 6.66681 0.775 4.77515 2.325 3.22515C3.875 1.67515 5.76667 0.900146 8 0.900146H16V8.90015C16 11.1335 15.225 13.0251 13.675 14.5751C12.125 16.1251 10.2333 16.9001 8 16.9001ZM8 14.9001C9.66667 14.9001 11.0833 14.3168 12.25 13.1501C13.4167 11.9835 14 10.5668 14 8.90015V2.90015H8C6.33333 2.90015 4.91667 3.48348 3.75 4.65015C2.58333 5.81681 2 7.23348 2 8.90015C2 9.55015 2.1 10.1708 2.3 10.7621C2.5 11.3541 2.775 11.8918 3.125 12.3751L8.3 7.20015C8.48333 7.01681 8.71667 6.92515 9 6.92515C9.28333 6.92515 9.51667 7.01681 9.7 7.20015C9.9 7.40015 10 7.63748 10 7.91215C10 8.18748 9.9 8.42515 9.7 8.62515L4.525 13.8001C5.00833 14.1501 5.54567 14.4208 6.137 14.6121C6.729 14.8041 7.35 14.9001 8 14.9001Z" fill="currentColor"/>
        </symbol>





        <svg id="arrow" viewBox="0 0 13 12" fill="none" xmlns="http://www.w3.org/2000/svg">
            <path d="M1.5 11L11.5 1" stroke="currentColor" stroke-width="2" stroke-linecap="round" stroke-linejoin="round"/>
            <path d="M5.94434 1H11.4999V6.55556" stroke="currentColor" stroke-width="2" stroke-linecap="round" stroke-linejoin="round"/>
        </svg>


        <defs>
            <symbol viewBox="0 0 1900 400" id="banner-image">
                <image href="/banner.png" width="1900" height="400" />
            </symbol>
        </defs>
        <use href="/public/banner" />
    </defs>
</svg>