<!-- sprite.svg -->
<svg xmlns="http://www.w3.org/2000/svg" xmlns:xlink="http://www.w3.org/1999/xlink">
    <defs>
        <symbol viewBox="0 0 25 21" id="retract">
            <path fill-rule="evenodd" clip-rule="evenodd"
                d="M23.4012 21C23.0708 21 22.7341 20.8971 22.4355 20.6703L10.7927 11.76C10.4031 11.4618 10.1765 11.0019 10.1765 10.5189C10.1765 10.0317 10.4009 9.5739 10.7906 9.2757C11.6684 8.60157 12.8364 7.70442 14.1269 6.71314C16.8808 4.59791 20.1927 2.05406 22.4334 0.333899C22.732 0.104998 23.0687 0 23.4012 0C24.2228 0 25 0.640499 25 1.575L25 19.4271C25 20.3574 24.2249 21 23.4012 21ZM23.0588 18.6952L23.0588 2.31741L15.7362 8.00888V13.0154L23.0588 18.6952ZM13.795 11.5097V9.51765L12.5122 10.5147L13.795 11.5097ZM15.7362 1.575V5.00338L13.795 6.49438V2.31741L3.24845 10.5147L13.795 18.6952V14.5297L15.7362 16.0153V19.4271C15.7362 20.3574 14.9612 21 14.1374 21C13.807 21 13.4703 20.8971 13.1717 20.6703L1.52892 11.76C1.13927 11.4618 0.912685 11.0019 0.912685 10.5189C0.912685 10.0317 1.13715 9.5739 1.5268 9.2757L4.86316 6.71314L4.86925 6.70847C7.6219 4.59416 10.9305 2.0528 13.1696 0.333899C13.4682 0.104998 13.8049 0 14.1374 0C14.959 0 15.7362 0.640499 15.7362 1.575Z"
                fill="#738F44" />
        </symbol>
        <symbol viewBox="0 0 31 31" id="modal-button">
            <path
                d="M25.8571 0H5C2.23858 0 0 2.23858 0 5V25.8571C0 28.6185 2.23858 30.8571 5 30.8571H25.8571C28.6185 30.8571 30.8571 28.6185 30.8571 25.8571V5C30.8571 2.23858 28.6185 0 25.8571 0Z"
                fill="white" />
            <path
                d="M16.5307 20.6991C16.5307 20.2627 16.1604 19.9085 15.7041 19.9085H5.2347C4.7785 19.9085 4.4082 20.2627 4.4082 20.6991C4.4082 21.1355 4.7785 21.4897 5.2347 21.4897H15.7041C16.1604 21.4897 16.5307 21.1355 16.5307 20.6991ZM26.449 15.4285C26.449 14.992 26.0787 14.6379 25.6225 14.6379H5.2347C4.7785 14.6379 4.4082 14.992 4.4082 15.4285C4.4082 15.8649 4.7785 16.2191 5.2347 16.2191H25.6225C26.0787 16.2191 26.449 15.8649 26.449 15.4285ZM22.0409 10.1578C22.0409 9.72139 21.6706 9.36719 21.2143 9.36719H5.2347C4.7785 9.36719 4.4082 9.72139 4.4082 10.1578C4.4082 10.5942 4.7785 10.9484 5.2347 10.9484H21.2143C21.6706 10.9484 22.0409 10.5942 22.0409 10.1578Z"
                fill="black" />
        </symbol>
         <symbol  viewBox="0 0 18 11" id="expand" fill="none">
            <path d="M1.85789 1.99998L8.92896 9.07104L16 1.99998" stroke="currentColor" stroke-width="3" stroke-linecap="round" stroke-linejoin="round"/>
        </symbol>
        <symbol viewBox="0 0 143 104" fill="none" id="user-check" xmlns="http://www.w3.org/2000/svg">
            <path d="M106.613 52.0003L83.8337 29.2212L92.9774 20.2378L106.613 33.8732L133.884 6.60241L142.867 15.7462L106.613 52.0003ZM51.7503 52.0003C44.692 52.0003 38.6496 49.4871 33.6232 44.4607C28.5969 39.4344 26.0837 33.392 26.0837 26.3337C26.0837 19.2753 28.5969 13.233 33.6232 8.20658C38.6496 3.18019 44.692 0.666992 51.7503 0.666992C58.8087 0.666992 64.851 3.18019 69.8774 8.20658C74.9038 13.233 77.417 19.2753 77.417 26.3337C77.417 33.392 74.9038 39.4344 69.8774 44.4607C64.851 49.4871 58.8087 52.0003 51.7503 52.0003ZM0.416992 103.334V85.367C0.416992 81.7309 1.35276 78.3889 3.22428 75.341C5.09581 72.293 7.58227 69.967 10.6837 68.3628C17.3142 65.0475 24.0517 62.5611 30.8962 60.9035C37.7406 59.2458 44.692 58.417 51.7503 58.417C58.8087 58.417 65.76 59.2458 72.6045 60.9035C79.4489 62.5611 86.1864 65.0475 92.817 68.3628C95.9184 69.967 98.4048 72.293 100.276 75.341C102.148 78.3889 103.084 81.7309 103.084 85.367V103.334H0.416992ZM13.2503 90.5003H90.2503V85.367C90.2503 84.1906 89.9562 83.1212 89.368 82.1587C88.7798 81.1962 88.0045 80.4475 87.042 79.9128C81.267 77.0253 75.4385 74.8597 69.5566 73.4159C63.6746 71.9722 57.7392 71.2503 51.7503 71.2503C45.7614 71.2503 39.826 71.9722 33.9441 73.4159C28.0621 74.8597 22.2337 77.0253 16.4587 79.9128C15.4962 80.4475 14.7208 81.1962 14.1326 82.1587C13.5444 83.1212 13.2503 84.1906 13.2503 85.367V90.5003ZM51.7503 39.167C55.2795 39.167 58.3007 37.9104 60.8139 35.3972C63.3271 32.884 64.5837 29.8628 64.5837 26.3337C64.5837 22.8045 63.3271 19.7833 60.8139 17.2701C58.3007 14.7569 55.2795 13.5003 51.7503 13.5003C48.2212 13.5003 45.2 14.7569 42.6868 17.2701C40.1736 19.7833 38.917 22.8045 38.917 26.3337C38.917 29.8628 40.1736 32.884 42.6868 35.3972C45.2 37.9104 48.2212 39.167 51.7503 39.167Z" fill="currentColor"/>
        </symbol>


        <symbol id="logo-sudene" viewBox="0 0 139 51" fill="none" xmlns="http://www.w3.org/2000/svg">
            <path fill-rule="evenodd" clip-rule="evenodd" d="M132.665 44.2062C132.423 44.6539 131.809 45.1203 130.748 45.1203C129.24 45.1203 128.774 44.0009 128.774 42.639H137.822C138.045 41.8554 138.064 41.1278 138.064 40.4375C138.064 36.445 134.657 34.8778 131.846 34.8778C128.681 34.8778 124.232 36.7994 124.232 42.6203C124.232 45.7173 126.037 48.236 130.543 48.236C136.016 48.236 136.984 45.0644 137.301 44.2062H132.647H132.665ZM129.184 40.1203C129.556 38.7771 130.412 37.9935 131.716 37.9935C132.944 37.9935 133.54 38.7584 133.54 39.7099C133.54 39.8405 133.522 40.0084 133.484 40.1203H129.184ZM107.7 47.9188H112.54L113.955 41.1838C114.253 39.8591 114.756 38.7584 116.301 38.7584C117.083 38.7584 117.678 39.1688 117.678 39.9897C117.678 40.5121 117.436 41.3703 117.287 42.0979L116.04 47.9375H120.881L122.426 40.7547C122.631 39.8218 122.761 38.889 122.761 38.3293C122.761 35.8293 120.862 34.8965 118.628 34.8965C117.083 34.8965 115.612 35.68 114.681 36.8368H114.644L115.016 35.2136H110.343L107.7 47.9375V47.9188ZM101.389 44.2062C101.147 44.6539 100.532 45.1203 99.4896 45.1203C97.9817 45.1203 97.5162 44.0009 97.5162 42.639H106.564C106.788 41.8554 106.806 41.1278 106.806 40.4375C106.806 36.445 103.399 34.8778 100.588 34.8778C97.4231 34.8778 92.9737 36.7994 92.9737 42.6203C92.9737 45.7173 94.7795 48.236 99.2848 48.236C104.758 48.236 105.726 45.0644 106.043 44.2062H101.389ZM97.9072 40.1203C98.2795 38.7771 99.1359 37.9935 100.42 37.9935C101.649 37.9935 102.264 38.7584 102.264 39.7099C102.264 39.8405 102.245 40.0084 102.208 40.1203H97.9072ZM84.8939 47.9188H89.6412L93.2715 30.4188H88.4311L87.1093 36.7621C86.2715 35.3069 84.9125 34.8778 83.4418 34.8778C79.6439 34.8778 77.1306 38.236 77.1306 43.0681C77.1306 44.6166 77.6891 48.2547 81.7848 48.2547C83.2556 48.2547 84.3354 47.6763 85.1545 46.4823H85.2104L84.9125 47.9375L84.8939 47.9188ZM83.7396 44.6912C82.4737 44.6912 81.9524 43.7584 81.9524 42.6017C81.9524 40.7547 82.5854 38.3853 84.5215 38.3853C85.7689 38.3853 86.2529 39.3181 86.2529 40.736C86.2529 42.2472 85.62 44.6912 83.7396 44.6912ZM76.3114 35.1763H71.471L70.3726 40.3442C69.9817 41.9673 69.8886 44.3367 67.7104 44.3367C67.0029 44.3367 66.3141 43.9076 66.3141 43.2173C66.3141 42.8442 66.37 42.4711 66.5003 41.8181L67.9152 35.1763H63.0747C61.604 42.1912 61.1944 43.7397 61.1944 44.8405C61.1944 47.2659 63.0375 48.236 65.2343 48.236C66.8726 48.236 68.2689 47.5457 69.3114 46.2957H69.3673L68.9763 47.9188H73.6678L76.3114 35.195V35.1763ZM60.6732 35.6987C60.7662 31.389 57.4152 29.9897 53.6918 29.9897C50.1732 29.9897 46.3567 31.7994 46.3567 35.7547C46.3567 38.6651 48.4045 39.8032 50.5455 40.5121C52.9657 41.3144 54.7529 41.5009 54.7529 42.7696C54.7529 43.9263 53.4497 44.4673 52.4072 44.4673C51.5322 44.4673 50.8992 44.43 50.4152 44.0196C49.9684 43.5718 49.7636 42.9935 49.7636 42.042H44.5508C44.3274 46.5009 47.9577 48.3479 51.979 48.3479C55.7769 48.3479 59.854 46.3517 59.854 42.1353C59.854 40.0457 58.8301 38.3853 55.7955 37.3032C54.0827 36.6875 51.4577 36.6129 51.4577 35.2882C51.4577 34.1315 52.6306 33.8703 53.5428 33.8703C54.1572 33.8703 54.7157 33.9636 55.1067 34.2621C55.4976 34.5606 55.7396 35.0084 55.721 35.7174H60.6918L60.6732 35.6987Z" fill="white"/>
            <path fill-rule="evenodd" clip-rule="evenodd" d="M42.7086 24.6161L41.7777 26.2766H30.6633L30.049 26.2206L29.4532 26.146L28.8761 26.034L28.299 25.9034L27.7405 25.7355L27.2006 25.549L26.6793 25.3251L26.1766 25.0825L25.6926 24.8213L25.2272 24.5228L24.7804 24.2057L24.3522 23.8699L23.9426 23.5154L23.5517 23.1236L23.1793 22.7131L22.8256 22.284L22.5091 21.8363L22.2112 21.3699L21.932 20.8848L21.6899 20.3997L21.4665 19.896L21.2618 19.3736L21.0942 18.8325L20.9453 18.2728L20.8336 17.7131L20.7405 17.1348L20.6846 16.5378V15.9408L20.666 15.3251L20.7033 14.7094L20.7777 14.0937L20.8708 13.4781L21.0011 12.8624L21.1687 12.2467L21.3548 11.6497L21.5596 11.0714L21.8017 10.493L22.0623 9.9333L22.3602 9.39225L23.291 7.73181L23.0118 8.29151L22.7511 8.8512L22.5091 9.42957L22.2857 10.0079L22.0995 10.6049L21.932 11.2206L21.8017 11.8363L21.7086 12.4519L21.6341 13.0676L21.5969 13.6833V14.299L21.6155 14.896L21.6713 15.493L21.7644 16.0714L21.8761 16.6311L22.0251 17.1908L22.1926 17.7318L22.3974 18.2542L22.6208 18.7579L22.8628 19.243L23.1421 19.7281L23.4399 20.1945L23.7564 20.6422L24.1102 21.0713L24.4825 21.4818L24.8735 21.8736L25.283 22.2281L25.7112 22.5639L26.158 22.881L26.6235 23.1796L27.1075 23.4407L27.6102 23.6833L28.1314 23.9072L28.6713 24.0937L29.2298 24.2616L29.7884 24.3922L30.3655 24.5042L30.9612 24.5788L31.5756 24.6161H32.1899H42.6899H42.7086Z" fill="white"/>
            <path fill-rule="evenodd" clip-rule="evenodd" d="M42.7077 24.6162H32.2077C25.5242 24.6162 20.8327 19.1871 21.7263 12.4707C22.62 5.77295 28.7636 0.325195 35.4657 0.325195H45.9657L42.7263 24.5976L42.7077 24.6162Z" fill="white"/>
            <path fill-rule="evenodd" clip-rule="evenodd" d="M77.3163 12.4706L76.2738 14.1124L68.0078 26.2579L71.2472 1.98554L72.2897 0.34375L69.0504 24.6161L77.3163 12.4706Z" fill="white"/>
            <path fill-rule="evenodd" clip-rule="evenodd" d="M72.2901 0.34375L77.3167 12.4706L69.0508 24.6161L72.2901 0.34375Z" fill="white"/>
            <path fill-rule="evenodd" clip-rule="evenodd" d="M50.9554 24.6161L49.9129 26.2579H43.2666L46.506 1.98554L47.5485 0.34375L44.3092 24.6161H50.9554Z" fill="white"/>
            <path fill-rule="evenodd" clip-rule="evenodd" d="M50.9549 24.6161H44.3086L47.5479 0.34375H54.1942L50.9549 24.6161Z" fill="white"/>
            <path fill-rule="evenodd" clip-rule="evenodd" d="M59.2025 24.6161L58.1599 26.2579H51.5137L54.753 1.98554L55.7956 0.34375L52.5562 24.6161H59.2025Z" fill="white"/>
            <path fill-rule="evenodd" clip-rule="evenodd" d="M59.2019 24.6161H52.5557L55.795 0.34375H62.4413L59.2019 24.6161Z" fill="white"/>
            <path fill-rule="evenodd" clip-rule="evenodd" d="M67.4496 24.6161L66.407 26.2579H59.7607L63.0001 1.98554L64.0427 0.34375L60.8033 24.6161H67.4496Z" fill="white"/>
            <path fill-rule="evenodd" clip-rule="evenodd" d="M67.45 24.6161H60.8037L64.0431 0.34375H70.6893L67.45 24.6161Z" fill="white"/>
            <path fill-rule="evenodd" clip-rule="evenodd" d="M39.8217 40.7167L39.0026 42.3585L38.7047 42.9182L38.3882 43.4592L38.0531 43.9816L37.6994 44.4854L37.3084 44.9704L36.9175 45.4555L36.4893 45.9033L36.0611 46.351L35.5957 46.7615L35.1302 47.1719L34.6276 47.5637L34.1249 47.9182L33.6036 48.254L33.0637 48.5712L32.5238 48.851L31.9653 49.1309L31.4068 49.3734L30.8111 49.5973L30.234 49.7839L29.6382 49.9518L29.0238 50.0824L28.4281 50.1943L27.7951 50.2689L27.1808 50.3062L26.5478 50.3249H16.0664L19.3058 26.0525L20.1249 24.3921L16.8856 48.6645H27.3855H28.0185L28.6329 48.6085L29.2473 48.5339L29.8616 48.4219L30.4574 48.2913L31.0531 48.1234L31.6488 47.9368L32.226 47.713L32.8031 47.4704L33.3616 47.2092L33.9015 46.9107L34.4228 46.6122L34.9441 46.2577L35.4653 45.9033L35.9494 45.5301L36.4148 45.1197L36.8802 44.6906L37.327 44.2615L37.7366 43.7951L38.1462 43.3286L38.5185 42.8249L38.8909 42.3212L39.226 41.7988L39.5425 41.2577L39.8217 40.7167Z" fill="white"/>
            <path fill-rule="evenodd" clip-rule="evenodd" d="M20.1252 24.3921H30.6252C37.3087 24.3921 42.0002 29.8212 41.1065 36.5376C40.2129 43.2354 34.0693 48.6645 27.3672 48.6645H16.8672L20.1066 24.3921H20.1252Z" fill="white"/>
            <path fill-rule="evenodd" clip-rule="evenodd" d="M15.4908 48.6645L14.6902 50.3249H8.04395L11.2833 26.0525L12.1025 24.3921L8.84448 48.6645H15.4908Z" fill="white"/>
            <path fill-rule="evenodd" clip-rule="evenodd" d="M15.489 48.6645H8.84277L12.1008 24.3921H18.7284L15.489 48.6645Z" fill="white"/>
            <path fill-rule="evenodd" clip-rule="evenodd" d="M7.46542 48.6645L6.64627 50.3249H0L3.23936 26.0525L4.05851 24.3921L0.81915 48.6645H7.46542Z" fill="white"/>
            <path fill-rule="evenodd" clip-rule="evenodd" d="M7.46561 48.6645H0.819336L4.0587 24.3921H10.705L7.46561 48.6645Z" fill="white"/>
        </symbol>

        <symbol viewBox="0 0 18 18" id="link-arrow">
            <path
                d="M9 3H3C2.46957 3 1.96086 3.21071 1.58579 3.58579C1.21071 3.96086 1 4.46957 1 5V15C1 15.5304 1.21071 16.0391 1.58579 16.4142C1.96086 16.7893 2.46957 17 3 17H13C13.5304 17 14.0391 16.7893 14.4142 16.4142C14.7893 16.0391 15 15.5304 15 15V9"
                stroke="currentColor"
                stroke-width="2"
                stroke-linecap="round"
                stroke-linejoin="round"
                fill="none"
            />
            <path
                d="M8 10L17 1"
                stroke="currentColor"
                stroke-width="2"
                stroke-linecap="round"
                stroke-linejoin="round"
                fill="none"
            />
            <path
                d="M12 1H17V6"
                stroke="currentColor"
                stroke-width="2"
                stroke-linecap="round"
                stroke-linejoin="round"
                fill="none"
            />
        </symbol>

        <symbol id="loading" viewBox="0 0 24 24" stroke-width="1.5" stroke="currentColor"
            fill="none" stroke-linecap="round" stroke-linejoin="round">
            <path stroke="none" d="M0 0h24v24H0z" fill="none" />
            <path d="M12 3a9 9 0 1 0 9 9" />
        </symbol>
        <svg id="calendar" viewBox="0 0 13 14" fill="none" xmlns="http://www.w3.org/2000/svg">
            <path d="M11.1667 1.66666H10.5V0.333328H9.16667V1.66666H3.83333V0.333328H2.5V1.66666H1.83333C1.09333 1.66666 0.506667 2.26666 0.506667 2.99999L0.5 12.3333C0.5 13.0667 1.09333 13.6667 1.83333 13.6667H11.1667C11.9 13.6667 12.5 13.0667 12.5 12.3333V2.99999C12.5 2.26666 11.9 1.66666 11.1667 1.66666ZM11.1667 12.3333H1.83333V5.66666H11.1667V12.3333ZM11.1667 4.33333H1.83333V2.99999H11.1667V4.33333ZM4.5 8.33333H3.16667V7H4.5V8.33333ZM7.16667 8.33333H5.83333V7H7.16667V8.33333ZM9.83333 8.33333H8.5V7H9.83333V8.33333ZM4.5 11H3.16667V9.66666H4.5V11ZM7.16667 11H5.83333V9.66666H7.16667V11ZM9.83333 11H8.5V9.66666H9.83333V11Z" fill="currentColor"/>
        </svg>

        <symbol id="filter" viewBox="0 0 12 12" fill="none" xmlns="http://www.w3.org/2000/svg">
            <path d="M2.66679 2.00008H9.33345L5.99345 6.20008L2.66679 2.00008ZM0.833452 1.74008C2.18012 3.46675 4.66679 6.66675 4.66679 6.66675V10.6667C4.66679 11.0334 4.96678 11.3334 5.33345 11.3334H6.66679C7.03345 11.3334 7.33345 11.0334 7.33345 10.6667V6.66675C7.33345 6.66675 9.81345 3.46675 11.1601 1.74008C11.5001 1.30008 11.1868 0.666748 10.6335 0.666748H1.36012C0.806785 0.666748 0.493452 1.30008 0.833452 1.74008Z" fill="currentColor"/>
        </symbol>
        <symbol id="no-filter" viewBox="0 0 14 15" fill="none" xmlns="http://www.w3.org/2000/svg">
            <path d="M10.8004 2.99984L8.42038 6.03317L9.37371 6.9865C10.0604 6.11317 12.6937 2.73984 12.6937 2.73984C13.0337 2.29984 12.7204 1.6665 12.167 1.6665H4.05371L5.38704 2.99984H10.8004Z" fill="currentColor"/>
            <path d="M1.37342 0.873291L0.426758 1.81329L6.16676 7.66662V11.6666C6.16676 12.0333 6.46676 12.3333 6.83342 12.3333H8.16676C8.53342 12.3333 8.83342 12.0333 8.83342 11.6666V10.22L12.6868 14.0733L13.6268 13.1333L1.37342 0.873291Z" fill="currentColor"/>
        </symbol>

        <symbol id="order" viewBox="0 0 20 15" fill="none" xmlns="http://www.w3.org/2000/svg">
            <path d="M0.514648 4.5L4.51465 0.5M4.51465 0.5L8.51465 4.5M4.51465 0.5V14.5" stroke="currentColor" stroke-linecap="round" stroke-linejoin="round"/>
            <path d="M18.5146 10.5L14.5146 14.5M14.5146 14.5L10.5146 10.5M14.5146 14.5V0.5" stroke="currentColor" stroke-linecap="round" stroke-linejoin="round"/>
        </symbol>
        <symbol
            viewBox="0 0 24 24"
            fill="none"
            stroke="currentColor"
            stroke-width="2"
            stroke-linecap="round"
            stroke-linejoin="round"
            id="close"
            >
            <path d="M18 6l-12 12" />
            <path d="M6 6l12 12" />
        </symbol>
        <symbol id="reset" viewBox="0 0 24 24" fill="none" stroke="currentColor" stroke-linecap="round" stroke-linejoin="round" stroke-width="2">
            <path d="M19.95 11a8 8 0 1 0 -.5 4m.5 5v-5h-5"></path>
        </symbol>
        <symbol id="no-mail" viewBox="0 0 24 24" fill="none" stroke="currentColor" stroke-linecap="round" stroke-linejoin="round" stroke-width="2">
            <path d="M10 21v-6.5a3.5 3.5 0 0 0 -7 0v6.5h18m0 -4v-2a4 4 0 0 0 -4 -4h-2m-4 0h-4.5"></path>
            <path d="M12 8v-5h4l2 2l-2 2h-4"></path>
            <path d="M6 15h1"></path>
            <path d="M3 3l18 18"></path>
        </symbol>
        <symbol id="money" viewBox="0 0 11 18" fill="none" xmlns="http://www.w3.org/2000/svg">
            <path d="M5.79995 7.9C3.52995 7.31 2.79995 6.7 2.79995 5.75C2.79995 4.66 3.80995 3.9 5.49995 3.9C7.27995 3.9 7.93995 4.75 7.99995 6H10.2099C10.1399 4.28 9.08995 2.7 6.99995 2.19V0H3.99995V2.16C2.05995 2.58 0.499946 3.84 0.499946 5.77C0.499946 8.08 2.40995 9.23 5.19995 9.9C7.69995 10.5 8.19995 11.38 8.19995 12.31C8.19995 13 7.70995 14.1 5.49995 14.1C3.43995 14.1 2.62995 13.18 2.51995 12H0.319946C0.439946 14.19 2.07995 15.42 3.99995 15.83V18H6.99995V15.85C8.94995 15.48 10.4999 14.35 10.4999 12.3C10.4999 9.46 8.06995 8.49 5.79995 7.9Z" fill="currentColor"/>
        </symbol>
        <symbol id="screwdriver" viewBox="0 0 20 21" fill="none" xmlns="http://www.w3.org/2000/svg">
            <path d="M17.275 18.7999L17.975 18.0999L10 10.1249C10.3167 9.74159 10.5627 9.30826 10.738 8.82493C10.9127 8.34159 11 7.83326 11 7.29993C11 6.04993 10.5627 4.99159 9.68802 4.12493C8.81269 3.25826 7.75002 2.82493 6.50002 2.82493H6.25002L9.32502 5.89993L5.07502 10.1249L2.00002 7.04993V7.32493C2.00002 8.57493 2.43736 9.63326 3.31202 10.4999C4.18736 11.3666 5.25002 11.7999 6.50002 11.7999C7.03336 11.7999 7.53769 11.7123 8.01302 11.5369C8.48769 11.3623 8.91669 11.1166 9.30002 10.7999L17.275 18.7999ZM15.875 20.2249L8.97503 13.3249C8.59169 13.4749 8.19602 13.5916 7.78802 13.6749C7.37936 13.7583 6.95836 13.7999 6.52502 13.7999C4.70836 13.7999 3.17102 13.1706 1.91302 11.9119C0.654358 10.6539 0.0250244 9.11659 0.0250244 7.29993C0.0250244 6.59993 0.129358 5.92493 0.338024 5.27493C0.546024 4.62493 0.850024 4.02493 1.25002 3.47493L5.07502 7.29993L6.50002 5.89993L2.67502 2.04993C3.24169 1.63326 3.85002 1.32059 4.50002 1.11193C5.15002 0.903927 5.81669 0.799927 6.50002 0.799927C8.31669 0.799927 9.85436 1.42893 11.113 2.68693C12.371 3.94559 13 5.48326 13 7.29993C13 7.73326 12.9584 8.16226 12.875 8.58693C12.7917 9.01226 12.6667 9.41659 12.5 9.79993L19.375 16.6749C19.7584 17.0583 19.9544 17.5289 19.963 18.0869C19.971 18.6456 19.7834 19.1166 19.4 19.4999L18.725 20.1999C18.3417 20.5999 17.8707 20.8039 17.312 20.8119C16.754 20.8206 16.275 20.6249 15.875 20.2249Z" fill="currentColor"/>
        </symbol>
        <symbol id="drop" viewBox="0 0 16 20" fill="none" xmlns="http://www.w3.org/2000/svg">
            <path d="M8 0C2.67 4.55 0 8.48 0 11.8C0 16.78 3.8 20 8 20C12.2 20 16 16.78 16 11.8C16 8.48 13.33 4.55 8 0ZM8 18C4.65 18 2 15.43 2 11.8C2 9.46 3.95 6.36 8 2.66C12.05 6.36 14 9.45 14 11.8C14 15.43 11.35 18 8 18ZM3.83 12C4.2 12 4.5 12.26 4.57 12.62C4.98 14.84 6.85 15.6 8.21 15.49C8.64 15.47 9 15.81 9 16.24C9 16.64 8.68 16.97 8.28 16.99C6.15 17.12 3.66 15.9 3.09 12.87C3.01 12.42 3.37 12 3.83 12Z" fill="currentColor"/>
        </symbol>

        <symbol id="user" viewBox="0 0 20 14" fill="none" xmlns="http://www.w3.org/2000/svg">
            <path d="M7 8.75C4.66 8.75 0 9.92 0 12.25V14H14V12.25C14 9.92 9.34 8.75 7 8.75ZM2.34 12C3.18 11.42 5.21 10.75 7 10.75C8.79 10.75 10.82 11.42 11.66 12H2.34ZM7 7C8.93 7 10.5 5.43 10.5 3.5C10.5 1.57 8.93 0 7 0C5.07 0 3.5 1.57 3.5 3.5C3.5 5.43 5.07 7 7 7ZM7 2C7.83 2 8.5 2.67 8.5 3.5C8.5 4.33 7.83 5 7 5C6.17 5 5.5 4.33 5.5 3.5C5.5 2.67 6.17 2 7 2ZM14.04 8.81C15.2 9.65 16 10.77 16 12.25V14H20V12.25C20 10.23 16.5 9.08 14.04 8.81ZM13 7C14.93 7 16.5 5.43 16.5 3.5C16.5 1.57 14.93 0 13 0C12.46 0 11.96 0.13 11.5 0.35C12.13 1.24 12.5 2.33 12.5 3.5C12.5 4.67 12.13 5.76 11.5 6.65C11.96 6.87 12.46 7 13 7Z" fill="currentColor"/>
        </symbol>
        <symbol id="health" viewBox="0 0 18 18" fill="none" xmlns="http://www.w3.org/2000/svg">
            <path d="M16 0H2C0.9 0 0.00999999 0.9 0.00999999 2L0 16C0 17.1 0.9 18 2 18H16C17.1 18 18 17.1 18 16V2C18 0.9 17.1 0 16 0ZM16 16H2V2H16V16ZM7.5 14H10.5V10.5H14V7.5H10.5V4H7.5V7.5H4V10.5H7.5V14Z" fill="currentColor"/>
        </symbol>
        <symbol id="book" viewBox="0 0 22 16" fill="none" xmlns="http://www.w3.org/2000/svg">
            <path d="M13 5.9V4.2C13.55 3.96667 14.1127 3.79167 14.688 3.675C15.2627 3.55833 15.8667 3.5 16.5 3.5C16.9333 3.5 17.3583 3.53333 17.775 3.6C18.1917 3.66667 18.6 3.75 19 3.85V5.45C18.6 5.3 18.196 5.18767 17.788 5.113C17.3793 5.03767 16.95 5 16.5 5C15.8667 5 15.2583 5.07933 14.675 5.238C14.0917 5.396 13.5333 5.61667 13 5.9ZM13 11.4V9.7C13.55 9.46667 14.1127 9.29167 14.688 9.175C15.2627 9.05833 15.8667 9 16.5 9C16.9333 9 17.3583 9.03333 17.775 9.1C18.1917 9.16667 18.6 9.25 19 9.35V10.95C18.6 10.8 18.196 10.6877 17.788 10.613C17.3793 10.5377 16.95 10.5 16.5 10.5C15.8667 10.5 15.2583 10.575 14.675 10.725C14.0917 10.875 13.5333 11.1 13 11.4ZM13 8.65V6.95C13.55 6.71667 14.1127 6.54167 14.688 6.425C15.2627 6.30833 15.8667 6.25 16.5 6.25C16.9333 6.25 17.3583 6.28333 17.775 6.35C18.1917 6.41667 18.6 6.5 19 6.6V8.2C18.6 8.05 18.196 7.93767 17.788 7.863C17.3793 7.78767 16.95 7.75 16.5 7.75C15.8667 7.75 15.2583 7.82933 14.675 7.988C14.0917 8.146 13.5333 8.36667 13 8.65ZM5.5 12C6.28333 12 7.046 12.0873 7.788 12.262C8.52933 12.4373 9.26667 12.7 10 13.05V3.2C9.31667 2.8 8.59167 2.5 7.825 2.3C7.05833 2.1 6.28333 2 5.5 2C4.9 2 4.30433 2.05833 3.713 2.175C3.121 2.29167 2.55 2.46667 2 2.7V12.6C2.58333 12.4 3.16267 12.25 3.738 12.15C4.31267 12.05 4.9 12 5.5 12ZM12 13.05C12.7333 12.7 13.471 12.4373 14.213 12.262C14.9543 12.0873 15.7167 12 16.5 12C17.1 12 17.6877 12.05 18.263 12.15C18.8377 12.25 19.4167 12.4 20 12.6V2.7C19.45 2.46667 18.8793 2.29167 18.288 2.175C17.696 2.05833 17.1 2 16.5 2C15.7167 2 14.9417 2.1 14.175 2.3C13.4083 2.5 12.6833 2.8 12 3.2V13.05ZM11 16C10.2 15.3667 9.33333 14.875 8.4 14.525C7.46667 14.175 6.5 14 5.5 14C4.8 14 4.11267 14.0917 3.438 14.275C2.76267 14.4583 2.11667 14.7167 1.5 15.05C1.15 15.2333 0.812667 15.225 0.488 15.025C0.162667 14.825 0 14.5333 0 14.15V2.1C0 1.91667 0.046 1.74167 0.138 1.575C0.229333 1.40833 0.366667 1.28333 0.55 1.2C1.31667 0.8 2.11667 0.5 2.95 0.3C3.78333 0.1 4.63333 0 5.5 0C6.46667 0 7.41267 0.125 8.338 0.375C9.26267 0.625 10.15 1 11 1.5C11.85 1 12.7377 0.625 13.663 0.375C14.5877 0.125 15.5333 0 16.5 0C17.3667 0 18.2167 0.1 19.05 0.3C19.8833 0.5 20.6833 0.8 21.45 1.2C21.6333 1.28333 21.771 1.40833 21.863 1.575C21.9543 1.74167 22 1.91667 22 2.1V14.15C22 14.5333 21.8377 14.825 21.513 15.025C21.1877 15.225 20.85 15.2333 20.5 15.05C19.8833 14.7167 19.2373 14.4583 18.562 14.275C17.8873 14.0917 17.2 14 16.5 14C15.5 14 14.5333 14.175 13.6 14.525C12.6667 14.875 11.8 15.3667 11 16Z" fill="currentColor"/>
        </symbol>
        <symbol id="leaf" viewBox="0 0 16 17" fill="none" xmlns="http://www.w3.org/2000/svg">
            <path d="M8 16.9001C7.06667 16.9001 6.18767 16.7541 5.363 16.4621C4.53767 16.1708 3.78333 15.7585 3.1 15.2251L1.7 16.6001C1.51667 16.7835 1.28333 16.8751 1 16.8751C0.716667 16.8751 0.483334 16.7835 0.3 16.6001C0.116667 16.4168 0.0250001 16.1835 0.0250001 15.9001C0.0250001 15.6168 0.116667 15.3835 0.3 15.2001L1.675 13.8251C1.14167 13.1418 0.729334 12.3835 0.438 11.5501C0.146 10.7168 0 9.83348 0 8.90015C0 6.66681 0.775 4.77515 2.325 3.22515C3.875 1.67515 5.76667 0.900146 8 0.900146H16V8.90015C16 11.1335 15.225 13.0251 13.675 14.5751C12.125 16.1251 10.2333 16.9001 8 16.9001ZM8 14.9001C9.66667 14.9001 11.0833 14.3168 12.25 13.1501C13.4167 11.9835 14 10.5668 14 8.90015V2.90015H8C6.33333 2.90015 4.91667 3.48348 3.75 4.65015C2.58333 5.81681 2 7.23348 2 8.90015C2 9.55015 2.1 10.1708 2.3 10.7621C2.5 11.3541 2.775 11.8918 3.125 12.3751L8.3 7.20015C8.48333 7.01681 8.71667 6.92515 9 6.92515C9.28333 6.92515 9.51667 7.01681 9.7 7.20015C9.9 7.40015 10 7.63748 10 7.91215C10 8.18748 9.9 8.42515 9.7 8.62515L4.525 13.8001C5.00833 14.1501 5.54567 14.4208 6.137 14.6121C6.729 14.8041 7.35 14.9001 8 14.9001Z" fill="currentColor"/>
        </symbol>

        <symbol id="list" viewBox="0 0 12 10">
            <path d="M1 10C0.722222 10 0.486222 9.90267 0.292 9.708C0.0973333 9.51378 0 9.27778 0 9C0 8.72222 0.0973333 8.48622 0.292 8.292C0.486222 8.09733 0.722222 8 1 8C1.27778 8 1.51378 8.09733 1.708 8.292C1.90267 8.48622 2 8.72222 2 9C2 9.27778 1.90267 9.51378 1.708 9.708C1.51378 9.90267 1.27778 10 1 10ZM3.33333 9.66667V8.33333H12V9.66667H3.33333ZM1 6C0.722222 6 0.486222 5.90267 0.292 5.708C0.0973333 5.51378 0 5.27778 0 5C0 4.72222 0.0973333 4.48622 0.292 4.292C0.486222 4.09733 0.722222 4 1 4C1.27778 4 1.51378 4.09733 1.708 4.292C1.90267 4.48622 2 4.72222 2 5C2 5.27778 1.90267 5.51378 1.708 5.708C1.51378 5.90267 1.27778 6 1 6ZM3.33333 5.66667V4.33333H12V5.66667H3.33333ZM1 2C0.722222 2 0.486222 1.90267 0.292 1.708C0.0973333 1.51378 0 1.27778 0 1C0 0.722222 0.0973333 0.486222 0.292 0.292C0.486222 0.0973335 0.722222 0 1 0C1.27778 0 1.51378 0.0973335 1.708 0.292C1.90267 0.486222 2 0.722222 2 1C2 1.27778 1.90267 1.51378 1.708 1.708C1.51378 1.90267 1.27778 2 1 2ZM3.33333 1.66667V0.333333H12V1.66667H3.33333Z" fill="currentColor"/>
        </symbol>


        <svg id="arrow" viewBox="0 0 13 12" fill="none" xmlns="http://www.w3.org/2000/svg">
            <path d="M1.5 11L11.5 1" stroke="currentColor" stroke-width="2" stroke-linecap="round" stroke-linejoin="round"/>
            <path d="M5.94434 1H11.4999V6.55556" stroke="currentColor" stroke-width="2" stroke-linecap="round" stroke-linejoin="round"/>
        </svg>

        <defs>
            <symbol viewBox="0 0 1900 400" id="banner-image">
                <image href="/banner.png" width="1900" height="400" />
            </symbol>
        </defs>
        <use href="/public/banner" />

        <symbol id="logo-DNE" viewBox="0 0 99 47" fill="none" xmlns="http://www.w3.org/2000/svg">
            <!-- Colorful squares on the left -->
            <rect x="0" y="10.174" width="5.725" height="5.737" fill="#514C50"/>
            <rect x="8.513" y="9.315" width="2.935" height="2.867" fill="#CA962B"/>
            <rect x="15.852" y="5.73" width="5.137" height="5.019" fill="#FDDA57"/>
            <rect x="12.183" y="12.04" width="5.137" height="5.098" fill="#211F5F"/>
            <rect x="7.632" y="16.484" width="3.962" height="3.73" fill="#EF424C"/>
            <rect x="12.183" y="20.787" width="3.523" height="3.443" fill="#BCD441"/>
            <rect x="18.237" y="17.935" width="4.22" height="4.143" fill="#35B9CF"/>
            <rect x="22.017" y="11.753" width="3.376" height="3.297" fill="#F99A3A"/>
            <rect x="23.948" y="18.35" width="4.968" height="4.875" fill="#D6528E"/>
            
            <!-- DNE in green -->
            <path d="M47.62 5.007 63.54 20.82a25.253 25.253 0 0 0 0-6.662c-.2-1.516-.393-2.973-1.114-4.663-1.632-3.831-4.706-5.89-5.89-6.661C53.076.576 49.284.146 47.62.048H24.131v10.694h2.139c.315 0 .568.25.568.556v4.138a.56.56 0 0 1-.568.556H24.13v1.347h5.024c.367 0 .663.299.663.666v5.281a.665.665 0 0 1-.663.666h-5.024v9.827h25.467a15.355 15.355 0 0 0 5.267-1.395c3.295-1.544 5.2-3.565 6.415-4.681L47.62 14.031v14.902H40.92V5.016l6.701-.009z" fill="#009046"/>
            
            <path d="M98.957.051H85.982c-2.36 0-4.7.486-6.83 1.478a15.031 15.031 0 0 0-4.272 2.964V.051H55.916a13.938 13.938 0 0 1 4.34 2.726 13.658 13.658 0 0 1 3.037 4.117V5.007h6.445v25.019H63.76l-1.335-1.213a24.134 24.134 0 0 1-6.259 4.966h18.717v-4.667a15.328 15.328 0 0 0 4.175 3.07c2.16 1.08 4.152 1.491 6.981 1.594h12.92v-6.184H86.493c-2.384 0-4.697-.854-6.453-2.455-1.171-1.062-2.314-2.522-2.995-4.477-1.14-3.273-.354-6.125 0-7.18.049-.149.1-.292.156-.435 1.537-4.001 5.506-6.56 9.815-6.542 3.981.016 7.96.033 11.942.048v-6.5z" fill="#009046"/>
            
            <path d="M81.631 15.494c-.022.042-.04.083-.062.125-.577 1.284-.088 2.433 0 2.628l.065.137c.534 1.06 1.675 1.701 2.884 1.694l13.923-.111v-6.223H84.577c-1.241 0-2.4.663-2.946 1.75z" fill="#009046"/>
            
            <!-- DATA NORDESTE text -->
            <path d="M4.612 47H.658v-6.576h3.954c2.093 0 3.626 1.325 3.626 3.288C8.238 45.675 6.705 47 4.612 47zm-2.104-1.7h2.23c.963 0 1.65-.647 1.65-1.588 0-.951-.687-1.599-1.65-1.599h-2.23V45.3zM17.069 47H15.06l-.57-1.012h-3.225l.782-1.406h1.66l-1.173-2.114L10.017 47h-2.04l3.51-6.09c.19-.324.465-.486.825-.486h.422c.36 0 .635.162.825.486l3.51 6.09zM20.409 47h-1.85v-4.887h-2.527v-1.69h6.903v1.69H20.41V47zM31.006 47h-2.009l-.57-1.012h-3.225l.782-1.406h1.66l-1.173-2.114L23.955 47h-2.04l3.51-6.09c.19-.324.464-.486.824-.486h.423c.359 0 .634.162.824.486l3.51 6.09zM41.297 47h-.37c-.497 0-.698-.172-1.058-.556l-3.541-3.663V47H34.53v-5.828c0-.495.285-.748.856-.748h.444c.57 0 .803.152 1.12.486l3.246 3.348v-3.834h1.787v5.898c0 .445-.233.678-.688.678zM46.428 45.3h1.248c.962 0 1.66-.647 1.66-1.588 0-.951-.698-1.599-1.66-1.599h-1.248c-.961 0-1.67.648-1.67 1.599 0 .94.698 1.588 1.67 1.588zM47.55 47h-.994c-2.103 0-3.636-1.325-3.636-3.288 0-1.963 1.533-3.288 3.636-3.288h.994c2.093 0 3.626 1.325 3.626 3.288 0 1.963-1.533 3.288-3.626 3.288zM59.893 47h-2.41l-1.375-1.67H54.48v-1.537h2.368c.508 0 .867-.334.867-.84s-.36-.84-.867-.84h-2.896V47h-1.84v-6.576h4.736c1.575 0 2.717.991 2.717 2.458 0 1.002-.55 1.791-1.406 2.186L59.893 47zM64.49 47h-3.954v-6.576h3.954c2.093 0 3.626 1.325 3.626 3.288 0 1.963-1.533 3.288-3.626 3.288zm-2.104-1.7h2.231c.962 0 1.65-.647 1.65-1.588 0-.951-.688-1.599-1.65-1.599h-2.23V45.3zM75.587 44.4h-4.06v-1.406h4.06V44.4zm.084 2.6h-6.607v-6.576h6.597v1.69h-4.747V45.3h4.757V47zM81.798 47h-5.222v-1.7h5.137c.265 0 .455-.161.455-.445 0-.283-.19-.455-.455-.455H78.69c-1.28 0-2.199-.81-2.199-1.983 0-1.194.92-1.993 2.199-1.993h5.222v1.69h-5.138c-.264 0-.444.151-.444.434 0 .274.18.446.445.446h3.023c1.29 0 2.21.82 2.21 1.993 0 1.214-.92 2.013-2.21 2.013zM88.928 47h-1.85v-4.887H84.55v-1.69h6.903v1.69h-2.526V47zM98.774 44.4h-4.06v-1.406h4.06V44.4zm.084 2.6h-6.607v-6.576h6.597v1.69H94.1V45.3h4.757V47z" fill="#514C50"/>
        </symbol>
            
        <symbol id="logo-gov" viewBox="0 0 138 51" fill="none" xmlns="http://www.w3.org/2000/svg">
            <path d="M14.7858 31.5336C18.0737 31.5336 20.694 28.7597 20.694 24.6533C20.9482 21.4296 18.543 18.611 15.3194 18.354C15.1434 18.34 14.9646 18.3344 14.7858 18.3372C11.3499 18.3372 9.55086 21.3681 9.55086 25.0136C9.54807 29.1731 12.0119 31.5336 14.7858 31.5336ZM29.6247 35.4863C29.6247 46.473 24.2892 50.0151 13.5036 50.0151C10.0285 50.0235 6.57302 49.4537 3.28512 48.3223L3.74604 41.0286C6.51995 42.5287 9.63187 43.2885 12.7857 43.2382C18.1268 43.2382 21.0013 40.7241 21.0013 35.4863V34.0449H20.8979C18.8866 37.0116 15.4926 38.7379 11.9113 38.615C4.56732 38.615 0 33.0728 0 25.1589C0 17.1975 3.74604 11.2446 12.065 11.2446C15.8585 11.2754 19.3364 13.3593 21.1521 16.6891H21.2583V11.8676H29.6247V35.4835V35.4863Z" fill="white"/>
            <path d="M66.887 38.5844H77.1697L86.8379 11.999H77.8569L72.4041 30.9387H72.3035L66.8925 11.999H57.1992L66.887 38.5844Z" fill="white"/>
            <path d="M51.1926 25.2987C51.1926 21.3209 49.4579 17.8011 45.223 17.8011C40.9881 17.8011 39.2561 21.3209 39.2561 25.2987C39.2561 29.2264 40.9909 32.7461 45.223 32.7461C49.4551 32.7461 51.1926 29.2264 51.1926 25.2987ZM29.7695 25.2987C29.7695 16.4742 36.4487 11.3789 45.223 11.3789C53.9973 11.3789 60.6764 16.4798 60.6764 25.2987C60.6764 34.073 53.9973 39.1711 45.223 39.1711C36.4487 39.1711 29.7695 34.073 29.7695 25.2987Z" fill="white"/>
            <path d="M87.8766 34.8269C87.8766 37.2349 85.924 39.1847 83.516 39.1847C81.108 39.1847 79.1582 37.2321 79.1582 34.8241C79.1582 32.4189 81.108 30.4691 83.516 30.4663C85.9212 30.4635 87.8738 32.4134 87.8766 34.8185C87.8766 34.8213 87.8766 34.8241 87.8766 34.8269Z" fill="white"/>
            <path d="M103.504 18.438C100.138 18.438 97.8918 21.3935 97.8918 25.3742C97.8918 29.2515 100.445 32.1623 103.504 32.1623C106.973 32.1623 109.066 29.2515 109.066 25.0166C109.066 21.4997 107.077 18.438 103.504 18.438ZM88.7097 0.325195H97.9477V15.4295H98.051C100.261 12.6807 103.666 11.1778 107.186 11.4013C114.532 11.4013 118.558 18.3877 118.558 24.8183C118.558 32.6735 114.326 39.2074 106.415 39.2074C102.588 39.3555 99.0204 37.2632 97.2828 33.8496H97.1795V38.5985H88.7041V0.327989H88.7097V0.325195Z" fill="white"/>
            <path d="M137.533 19.3569C136.517 19.1027 135.469 18.9993 134.422 19.0524C130.136 19.0524 127.742 22.1643 127.742 27.3685V38.5955H118.555V11.9989H126.93V16.8986H127.033C128.192 13.5604 131.357 11.3424 134.888 11.3899C135.933 11.4067 136.972 11.51 138 11.6944L137.533 19.3569Z" fill="white"/>
        </symbol>

        <symbol id="youtube" viewBox="0 0 32 33" fill="none" xmlns="http://www.w3.org/2000/svg">
            <path fill-rule="evenodd" clip-rule="evenodd" d="M0 16.3252C0 7.48864 7.16344 0.325195 16 0.325195C24.8366 0.325195 32 7.48864 32 16.3252C32 25.1618 24.8366 32.3252 16 32.3252C7.16344 32.3252 0 25.1618 0 16.3252Z" fill="currentColor"/>
            <path fill-rule="evenodd" clip-rule="evenodd" d="M22.6679 10.8247C23.4022 11.0262 23.9805 11.62 24.1768 12.374C24.5335 13.7405 24.5335 16.5918 24.5335 16.5918C24.5335 16.5918 24.5335 19.443 24.1768 20.8097C23.9805 21.5637 23.4022 22.1574 22.6679 22.359C21.3371 22.7252 16.0001 22.7252 16.0001 22.7252C16.0001 22.7252 10.6632 22.7252 9.3323 22.359C8.59795 22.1574 8.01962 21.5637 7.82335 20.8097C7.4668 19.443 7.4668 16.5918 7.4668 16.5918C7.4668 16.5918 7.4668 13.7405 7.82335 12.374C8.01962 11.62 8.59795 11.0262 9.3323 10.8247C10.6632 10.4585 16.0001 10.4585 16.0001 10.4585C16.0001 10.4585 21.3371 10.4585 22.6679 10.8247ZM14.4001 14.1918V19.5251L18.6668 16.8585L14.4001 14.1918Z" fill="white"/>
        </symbol>

        <symbol id="facebook" viewBox="0 0 32 33" fill="none" xmlns="http://www.w3.org/2000/svg">
            <g clip-path="url(#clip0_3376_6219)">
                <path fill-rule="evenodd" clip-rule="evenodd" d="M0 16.3252C0 7.48864 7.16344 0.325195 16 0.325195C24.8366 0.325195 32 7.48864 32 16.3252C32 25.1618 24.8366 32.3252 16 32.3252C7.16344 32.3252 0 25.1618 0 16.3252Z" fill="currentColor"/>
                <path d="M16 7.8252C11.3059 7.8252 7.5 11.6507 7.5 16.369C7.5 20.6523 10.6393 24.1894 14.7292 24.8074V18.6331H12.6262V16.3875H14.7292V14.893C14.7292 12.4189 15.9285 11.3331 17.9741 11.3331C18.9538 11.3331 19.4722 11.4065 19.7173 11.4392V13.3993H18.3219C17.4535 13.3993 17.1503 14.2273 17.1503 15.16V16.3875H19.6954L19.3504 18.6331H17.1503V24.8252C21.299 24.2599 24.5 20.6943 24.5 16.369C24.5 11.6507 20.6941 7.8252 16 7.8252Z" fill="white"/>
            </g>
        </symbol>

        <svg id="linkedin" viewBox="0 0 32 33" fill="none" xmlns="http://www.w3.org/2000/svg">
            <path fill-rule="evenodd" clip-rule="evenodd" d="M0 16.3252C0 7.48864 7.16344 0.325195 16 0.325195C24.8366 0.325195 32 7.48864 32 16.3252C32 25.1618 24.8366 32.3252 16 32.3252C7.16344 32.3252 0 25.1618 0 16.3252Z" fill="currentColor"/>
            <path fill-rule="evenodd" clip-rule="evenodd" d="M9.26712 8.4585C8.64121 8.4585 8.13379 8.96591 8.13379 9.59183V22.0585C8.13379 22.6844 8.64121 23.1918 9.26712 23.1918H21.7338C22.3597 23.1918 22.8671 22.6844 22.8671 22.0585V9.59183C22.8671 8.96591 22.3597 8.4585 21.7338 8.4585H9.26712ZM10.4571 14.1252H12.6105V20.9252H10.4571V14.1252ZM12.7521 11.8642C12.7521 12.537 12.2067 13.0825 11.5338 13.0825C10.8609 13.0825 10.3155 12.537 10.3155 11.8642C10.3155 11.1913 10.8609 10.6458 11.5338 10.6458C12.2067 10.6458 12.7521 11.1913 12.7521 11.8642ZM20.6005 16.7966C20.6005 14.7509 19.2783 13.9555 17.9649 13.9555C17.5348 13.9343 17.1066 14.0245 16.723 14.217C16.4317 14.3632 16.1268 14.6978 15.8916 15.2795H15.8312V14.1257H13.8005V20.9305H15.9608V17.3112C15.9295 16.9405 16.0482 16.4614 16.2909 16.1763C16.5336 15.8913 16.8807 15.8232 17.144 15.7886H17.226C17.913 15.7886 18.4229 16.2139 18.4229 17.2857V20.9305H20.5831L20.6005 16.7966Z" fill="white"/>
        </svg>

        <svg id="instagram" viewBox="0 0 32 33" fill="none" xmlns="http://www.w3.org/2000/svg">
            <path fill-rule="evenodd" clip-rule="evenodd" d="M0 16.3252C0 7.48864 7.16344 0.325195 16 0.325195C24.8366 0.325195 32 7.48864 32 16.3252C32 25.1618 24.8366 32.3252 16 32.3252C7.16344 32.3252 0 25.1618 0 16.3252Z" fill="currentColor"/>
            <path fill-rule="evenodd" clip-rule="evenodd" d="M16.0009 7.79199C13.6834 7.79199 13.3925 7.80213 12.4823 7.84355C11.5739 7.88515 10.9538 8.02897 10.4112 8.24C9.84993 8.45795 9.37384 8.74951 8.89952 9.22401C8.42485 9.69832 8.13329 10.1744 7.91462 10.7355C7.70307 11.2783 7.55906 11.8985 7.51818 12.8066C7.47746 13.7169 7.4668 14.0079 7.4668 16.3254C7.4668 18.6429 7.47711 18.9329 7.51835 19.8431C7.56013 20.7516 7.70395 21.3717 7.9148 21.9143C8.13294 22.4755 8.4245 22.9516 8.89899 23.4259C9.37313 23.9006 9.84922 24.1929 10.4101 24.4108C10.9531 24.6219 11.5733 24.7657 12.4816 24.8073C13.3918 24.8487 13.6825 24.8588 15.9999 24.8588C18.3176 24.8588 18.6075 24.8487 19.5178 24.8073C20.4262 24.7657 21.047 24.6219 21.59 24.4108C22.151 24.1929 22.6264 23.9006 23.1006 23.4259C23.5752 22.9516 23.8668 22.4755 24.0855 21.9144C24.2952 21.3717 24.4392 20.7514 24.4819 19.8433C24.5228 18.9331 24.5335 18.6429 24.5335 16.3254C24.5335 14.0079 24.5228 13.717 24.4819 12.8068C24.4392 11.8983 24.2952 11.2783 24.0855 10.7357C23.8668 10.1744 23.5752 9.69832 23.1006 9.22401C22.6259 8.74934 22.1512 8.45778 21.5894 8.24C21.0454 8.02897 20.425 7.88515 19.5165 7.84355C18.6063 7.80213 18.3165 7.79199 15.9983 7.79199H16.0009ZM15.2354 9.32976C15.4626 9.32941 15.7161 9.32976 16.0009 9.32976C18.2793 9.32976 18.5494 9.33794 19.4491 9.37883C20.2811 9.41687 20.7327 9.5559 21.0335 9.6727C21.4317 9.82737 21.7156 10.0123 22.0141 10.3109C22.3128 10.6096 22.4977 10.894 22.6527 11.2923C22.7695 11.5927 22.9087 12.0443 22.9466 12.8763C22.9875 13.7759 22.9963 14.0461 22.9963 16.3234C22.9963 18.6008 22.9875 18.871 22.9466 19.7706C22.9085 20.6026 22.7695 21.0542 22.6527 21.3546C22.498 21.7528 22.3128 22.0364 22.0141 22.3349C21.7154 22.6335 21.4319 22.8184 21.0335 22.9731C20.733 23.0904 20.2811 23.2291 19.4491 23.2672C18.5495 23.308 18.2793 23.3169 16.0009 23.3169C13.7223 23.3169 13.4522 23.308 12.5527 23.2672C11.7207 23.2288 11.2691 23.0897 10.9681 22.9729C10.5699 22.8183 10.2855 22.6334 9.98679 22.3347C9.68812 22.036 9.50323 21.7523 9.3482 21.3539C9.2314 21.0534 9.0922 20.6019 9.05433 19.7699C9.01344 18.8703 9.00527 18.6001 9.00527 16.3213C9.00527 14.0425 9.01344 13.7737 9.05433 12.8742C9.09238 12.0421 9.2314 11.5906 9.3482 11.2898C9.50287 10.8916 9.68812 10.6071 9.98679 10.3084C10.2855 10.0098 10.5699 9.82488 10.9681 9.66985C11.2689 9.55252 11.7207 9.41385 12.5527 9.37563C13.3399 9.34007 13.645 9.32941 15.2354 9.32763V9.32976ZM20.556 10.7467C19.9906 10.7467 19.532 11.2048 19.532 11.7703C19.532 12.3357 19.9906 12.7943 20.556 12.7943C21.1213 12.7943 21.58 12.3357 21.58 11.7703C21.58 11.205 21.1213 10.7467 20.556 10.7467ZM16.0009 11.9431C13.5808 11.9431 11.6187 13.9053 11.6187 16.3254C11.6187 18.7455 13.5808 20.7068 16.0009 20.7068C18.4211 20.7068 20.3825 18.7455 20.3825 16.3254C20.3825 13.9053 18.4211 11.9431 16.0009 11.9431ZM16.0009 13.4809C17.5718 13.4809 18.8454 14.7544 18.8454 16.3254C18.8454 17.8963 17.5718 19.1699 16.0009 19.1699C14.4299 19.1699 13.1564 17.8963 13.1564 16.3254C13.1564 14.7544 14.4299 13.4809 16.0009 13.4809Z" fill="white"/>
        </svg>

        <svg id="mission" viewBox="0 0 114 114" fill="none" xmlns="http://www.w3.org/2000/svg">
            <path d="M57 104.5C50.4292 104.5 44.2542 103.253 38.475 100.759C32.6958 98.2656 27.6687 94.8812 23.3938 90.6062C19.1187 86.3312 15.7344 81.3042 13.2406 75.525C10.7469 69.7458 9.5 63.5708 9.5 57C9.5 50.4292 10.7469 44.2542 13.2406 38.475C15.7344 32.6958 19.1187 27.6687 23.3938 23.3938C27.6687 19.1187 32.6958 15.7344 38.475 13.2406C44.2542 10.7469 50.4292 9.5 57 9.5C63.5708 9.5 69.7458 10.7469 75.525 13.2406C81.3042 15.7344 86.3312 19.1187 90.6062 23.3938C94.8812 27.6687 98.2656 32.6958 100.759 38.475C103.253 44.2542 104.5 50.4292 104.5 57C104.5 63.5708 103.253 69.7458 100.759 75.525C98.2656 81.3042 94.8812 86.3312 90.6062 90.6062C86.3312 94.8812 81.3042 98.2656 75.525 100.759C69.7458 103.253 63.5708 104.5 57 104.5ZM57 95C67.6083 95 76.5938 91.3187 83.9562 83.9562C91.3187 76.5938 95 67.6083 95 57C95 46.3917 91.3187 37.4062 83.9562 30.0437C76.5938 22.6812 67.6083 19 57 19C46.3917 19 37.4062 22.6812 30.0437 30.0437C22.6812 37.4062 19 46.3917 19 57C19 67.6083 22.6812 76.5938 30.0437 83.9562C37.4062 91.3187 46.3917 95 57 95ZM57 85.5C49.0833 85.5 42.3542 82.7292 36.8125 77.1875C31.2708 71.6458 28.5 64.9167 28.5 57C28.5 49.0833 31.2708 42.3542 36.8125 36.8125C42.3542 31.2708 49.0833 28.5 57 28.5C64.9167 28.5 71.6458 31.2708 77.1875 36.8125C82.7292 42.3542 85.5 49.0833 85.5 57C85.5 64.9167 82.7292 71.6458 77.1875 77.1875C71.6458 82.7292 64.9167 85.5 57 85.5ZM57 76C62.225 76 66.6979 74.1396 70.4188 70.4188C74.1396 66.6979 76 62.225 76 57C76 51.775 74.1396 47.3021 70.4188 43.5812C66.6979 39.8604 62.225 38 57 38C51.775 38 47.3021 39.8604 43.5812 43.5812C39.8604 47.3021 38 51.775 38 57C38 62.225 39.8604 66.6979 43.5812 70.4188C47.3021 74.1396 51.775 76 57 76ZM57 66.5C54.3875 66.5 52.151 65.5698 50.2906 63.7094C48.4302 61.849 47.5 59.6125 47.5 57C47.5 54.3875 48.4302 52.151 50.2906 50.2906C52.151 48.4302 54.3875 47.5 57 47.5C59.6125 47.5 61.849 48.4302 63.7094 50.2906C65.5698 52.151 66.5 54.3875 66.5 57C66.5 59.6125 65.5698 61.849 63.7094 63.7094C61.849 65.5698 59.6125 66.5 57 66.5Z" fill="#EEFFF3"/>
        </svg>
            
        <svg id="vision" viewBox="0 0 114 114" fill="none" xmlns="http://www.w3.org/2000/svg">
            <g clip-path="url(#clip0_3932_4156)">
            <path d="M57 30.875C75.0025 30.875 91.0575 40.9925 98.895 57C91.0575 73.0075 75.05 83.125 57 83.125C38.95 83.125 22.9425 73.0075 15.105 57C22.9425 40.9925 38.9975 30.875 57 30.875ZM57 21.375C33.25 21.375 12.9675 36.1475 4.75 57C12.9675 77.8525 33.25 92.625 57 92.625C80.75 92.625 101.033 77.8525 109.25 57C101.033 36.1475 80.75 21.375 57 21.375ZM57 45.125C63.555 45.125 68.875 50.445 68.875 57C68.875 63.555 63.555 68.875 57 68.875C50.445 68.875 45.125 63.555 45.125 57C45.125 50.445 50.445 45.125 57 45.125ZM57 35.625C45.22 35.625 35.625 45.22 35.625 57C35.625 68.78 45.22 78.375 57 78.375C68.78 78.375 78.375 68.78 78.375 57C78.375 45.22 68.78 35.625 57 35.625Z" fill="#EEFFF3"/>
            </g>
            <defs>
            <clipPath id="clip0_3932_4156">
            <rect width="114" height="114" fill="white"/>
            </clipPath>
            </defs>
        </svg>

        <svg id="values" viewBox="0 0 114 114" fill="none" xmlns="http://www.w3.org/2000/svg">
            <path d="M56.4059 95C56.7226 95 57.0392 94.9208 57.3559 94.7625C57.6726 94.6042 57.9101 94.4458 58.0684 94.2875L97.0184 55.3375C97.9684 54.3875 98.6619 53.3188 99.0989 52.1313C99.5327 50.9438 99.7496 49.7563 99.7496 48.5688C99.7496 47.3021 99.5327 46.094 99.0989 44.9445C98.6619 43.7982 97.9684 42.7896 97.0184 41.9188L76.8309 21.7312C75.9601 20.7812 74.9515 20.0878 73.8052 19.6508C72.6556 19.2169 71.4476 19 70.1809 19C68.9934 19 67.8059 19.2169 66.6184 19.6508C65.4309 20.0878 64.3622 20.7812 63.4122 21.7312L62.1059 23.0375L70.8934 31.9438C72.0809 33.0521 72.9517 34.3188 73.5059 35.7437C74.0601 37.1688 74.3372 38.6729 74.3372 40.2563C74.3372 43.5813 73.2098 46.3711 70.9551 48.6258C68.6973 50.8836 65.9059 52.0125 62.5809 52.0125C60.9976 52.0125 59.4744 51.7354 58.0114 51.1812C56.5452 50.6271 55.258 49.7958 54.1496 48.6875L45.2434 39.9L24.4622 60.6812C24.2246 60.9187 24.0457 61.1768 23.9254 61.4555C23.8082 61.731 23.7496 62.0271 23.7496 62.3438C23.7496 62.9771 23.9872 63.5503 24.4622 64.0633C24.9371 64.5794 25.4913 64.8375 26.1246 64.8375C26.4413 64.8375 26.758 64.7583 27.0746 64.6C27.3913 64.4417 27.6288 64.2833 27.7871 64.125L43.9371 47.975L50.5871 54.625L34.5559 70.775C34.3184 71.0125 34.1395 71.269 34.0191 71.5445C33.902 71.8232 33.8434 72.1208 33.8434 72.4375C33.8434 73.0708 34.0809 73.625 34.5559 74.1C35.0309 74.575 35.5851 74.8125 36.2184 74.8125C36.5351 74.8125 36.8517 74.7333 37.1684 74.575C37.4851 74.4167 37.7226 74.2583 37.8809 74.1L54.0309 58.0688L60.6809 64.7188L44.6496 80.8688C44.4121 81.0271 44.2348 81.2646 44.1176 81.5812C43.9973 81.8979 43.9371 82.2146 43.9371 82.5312C43.9371 83.1646 44.1746 83.7188 44.6496 84.1937C45.1246 84.6688 45.6788 84.9062 46.3121 84.9062C46.6288 84.9062 46.9265 84.8461 47.2051 84.7257C47.4806 84.6086 47.7372 84.4313 47.9747 84.1937L64.1246 68.1625L70.7747 74.8125L54.6246 90.9625C54.3871 91.2 54.2098 91.4565 54.0926 91.732C53.9723 92.0107 53.9122 92.3083 53.9122 92.625C53.9122 93.2583 54.1702 93.8125 54.6864 94.2875C55.1994 94.7625 55.7726 95 56.4059 95ZM56.2872 104.5C53.358 104.5 50.7661 103.529 48.5114 101.588C46.2536 99.6502 44.9267 97.2167 44.5309 94.2875C41.8392 93.8917 39.583 92.7833 37.7621 90.9625C35.9413 89.1417 34.833 86.8854 34.4371 84.1937C31.7455 83.7979 29.5098 82.6706 27.7301 80.8118C25.9473 78.9498 24.858 76.7125 24.4622 74.1C21.4538 73.7042 18.9996 72.3979 17.0996 70.1812C15.1996 67.9646 14.2496 65.3521 14.2496 62.3438C14.2496 60.7604 14.5473 59.2357 15.1426 57.7695C15.7348 56.3065 16.5851 55.0208 17.6934 53.9125L45.2434 26.4812L60.7997 42.0375C60.958 42.275 61.1955 42.4523 61.5121 42.5695C61.8288 42.6898 62.1455 42.75 62.4621 42.75C63.1746 42.75 63.7684 42.5331 64.2434 42.0993C64.7184 41.6623 64.9559 41.0875 64.9559 40.375C64.9559 40.0583 64.8973 39.7417 64.7801 39.425C64.6598 39.1083 64.4809 38.8708 64.2434 38.7125L47.2621 21.7312C46.3913 20.7812 45.3811 20.0878 44.2317 19.6508C43.0853 19.2169 41.8788 19 40.6122 19C39.4247 19 38.2372 19.2169 37.0497 19.6508C35.8622 20.0878 34.7934 20.7812 33.8434 21.7312L17.0996 38.5938C16.3871 39.3062 15.7934 40.1375 15.3184 41.0875C14.8434 42.0375 14.5267 42.9875 14.3684 43.9375C14.2101 44.8875 14.2101 45.8565 14.3684 46.8445C14.5267 47.8357 14.8434 48.7667 15.3184 49.6375L8.4309 56.525C7.08506 54.7042 6.09548 52.7044 5.46215 50.5257C4.82881 48.3503 4.59132 46.1542 4.74965 43.9375C4.90798 41.7208 5.46215 39.5627 6.41215 37.4633C7.36215 35.3669 8.6684 33.4875 10.3309 31.825L27.0746 15.0812C28.9746 13.2604 31.0931 11.875 33.4301 10.925C35.764 9.975 38.158 9.5 40.6122 9.5C43.0663 9.5 45.4603 9.975 47.7942 10.925C50.1311 11.875 52.2101 13.2604 54.0309 15.0812L55.3371 16.3875L56.6434 15.0812C58.5434 13.2604 60.6603 11.875 62.9941 10.925C65.3312 9.975 67.7267 9.5 70.1809 9.5C72.6351 9.5 75.0306 9.975 77.3677 10.925C79.7015 11.875 81.7788 13.2604 83.5997 15.0812L103.668 35.15C105.489 36.9708 106.875 39.0688 107.825 41.4438C108.775 43.8188 109.25 46.2333 109.25 48.6875C109.25 51.1417 108.775 53.5357 107.825 55.8695C106.875 58.2065 105.489 60.2854 103.668 62.1063L64.7184 100.938C63.6101 102.046 62.3228 102.917 60.8567 103.55C59.3937 104.183 57.8705 104.5 56.2872 104.5Z" fill="#EEFFF3"/>
        </svg>
	
	<symbol id="icon-external" viewBox="0 0 24 24" fill="none" stroke="currentColor" stroke-width="2" stroke-linecap="round" stroke-linejoin="round">
    		<path d="M18 13v6a2 2 0 0 1-2 2H6a2 2 0 0 1-2-2V8a2 2 0 0 1 2-2h6" />
    		<polyline points="15 3 21 3 21 9" />
    		<line x1="10" y1="14" x2="21" y2="3" />
  	</symbol>

  	<symbol id="icon-download" viewBox="0 0 24 24" fill="none" stroke="currentColor" stroke-width="2" stroke-linecap="round" stroke-linejoin="round">
    		<path d="M21 15v4a2 2 0 0 1-2 2H5a2 2 0 0 1-2-2v-4" />
    		<polyline points="7 10 12 15 17 10" />
    		<line x1="12" y1="15" x2="12" y2="3" />
  	</symbol>
   
    </defs>
</svg>