<!-- sprite.svg -->
<svg xmlns="http://www.w3.org/2000/svg" xmlns:xlink="http://www.w3.org/1999/xlink">
    <defs>
        <symbol viewBox="0 0 18 18" id="instagram">
            <path
                d="M1 5C1 3.93913 1.42143 2.92172 2.17157 2.17157C2.92172 1.42143 3.93913 1 5 1H13C14.0609 1 15.0783 1.42143 15.8284 2.17157C16.5786 2.92172 17 3.93913 17 5V13C17 14.0609 16.5786 15.0783 15.8284 15.8284C15.0783 16.5786 14.0609 17 13 17H5C3.93913 17 2.92172 16.5786 2.17157 15.8284C1.42143 15.0783 1 14.0609 1 13V5Z"
                stroke="white" stroke-width="2" stroke-linecap="round" stroke-linejoin="round" />
            <path
                d="M6 9C6 9.79565 6.31607 10.5587 6.87868 11.1213C7.44129 11.6839 8.20435 12 9 12C9.79565 12 10.5587 11.6839 11.1213 11.1213C11.6839 10.5587 12 9.79565 12 9C12 8.20435 11.6839 7.44129 11.1213 6.87868C10.5587 6.31607 9.79565 6 9 6C8.20435 6 7.44129 6.31607 6.87868 6.87868C6.31607 7.44129 6 8.20435 6 9Z"
                stroke="white" stroke-width="2" stroke-linecap="round" stroke-linejoin="round" />
            <path d="M13.5 4.5V4.51" stroke="white" stroke-width="2" stroke-linecap="round"
                stroke-linejoin="round" />
        </symbol>

        <symbol viewBox="0 0 22 18" id="youtube">
            <path
                d="M1 5C1 3.93913 1.42143 2.92172 2.17157 2.17157C2.92172 1.42143 3.93913 1 5 1H17C18.0609 1 19.0783 1.42143 19.8284 2.17157C20.5786 2.92172 21 3.93913 21 5V13C21 14.0609 20.5786 15.0783 19.8284 15.8284C19.0783 16.5786 18.0609 17 17 17H5C3.93913 17 2.92172 16.5786 2.17157 15.8284C1.42143 15.0783 1 14.0609 1 13V5Z"
                stroke="white" stroke-width="2" stroke-linecap="round" stroke-linejoin="round" />
            <path d="M9 6L14 9L9 12V6Z" stroke="white" stroke-width="2" stroke-linecap="round"
                stroke-linejoin="round" />
        </symbol>

        <symbol viewBox="0 0 13 20" id="facebook">
            <path
                d="M1 8V12H4V19H8V12H11L12 8H8V6C8 5.73478 8.10536 5.48043 8.29289 5.29289C8.48043 5.10536 8.73478 5 9 5H12V1H9C7.67392 1 6.40215 1.52678 5.46447 2.46447C4.52678 3.40215 4 4.67392 4 6V8H1Z"
                stroke="white" stroke-width="2" stroke-linecap="round" stroke-linejoin="round" />
        </symbol>
        <symbol viewBox="0 0 25 21" id="retract">
            <path fill-rule="evenodd" clip-rule="evenodd"
                d="M23.4012 21C23.0708 21 22.7341 20.8971 22.4355 20.6703L10.7927 11.76C10.4031 11.4618 10.1765 11.0019 10.1765 10.5189C10.1765 10.0317 10.4009 9.5739 10.7906 9.2757C11.6684 8.60157 12.8364 7.70442 14.1269 6.71314C16.8808 4.59791 20.1927 2.05406 22.4334 0.333899C22.732 0.104998 23.0687 0 23.4012 0C24.2228 0 25 0.640499 25 1.575L25 19.4271C25 20.3574 24.2249 21 23.4012 21ZM23.0588 18.6952L23.0588 2.31741L15.7362 8.00888V13.0154L23.0588 18.6952ZM13.795 11.5097V9.51765L12.5122 10.5147L13.795 11.5097ZM15.7362 1.575V5.00338L13.795 6.49438V2.31741L3.24845 10.5147L13.795 18.6952V14.5297L15.7362 16.0153V19.4271C15.7362 20.3574 14.9612 21 14.1374 21C13.807 21 13.4703 20.8971 13.1717 20.6703L1.52892 11.76C1.13927 11.4618 0.912685 11.0019 0.912685 10.5189C0.912685 10.0317 1.13715 9.5739 1.5268 9.2757L4.86316 6.71314L4.86925 6.70847C7.6219 4.59416 10.9305 2.0528 13.1696 0.333899C13.4682 0.104998 13.8049 0 14.1374 0C14.959 0 15.7362 0.640499 15.7362 1.575Z"
                fill="#738F44" />
        </symbol>
        <symbol viewBox="0 0 31 31" id="modal-button">
            <path
                d="M25.8571 0H5C2.23858 0 0 2.23858 0 5V25.8571C0 28.6185 2.23858 30.8571 5 30.8571H25.8571C28.6185 30.8571 30.8571 28.6185 30.8571 25.8571V5C30.8571 2.23858 28.6185 0 25.8571 0Z"
                fill="white" />
            <path
                d="M16.5307 20.6991C16.5307 20.2627 16.1604 19.9085 15.7041 19.9085H5.2347C4.7785 19.9085 4.4082 20.2627 4.4082 20.6991C4.4082 21.1355 4.7785 21.4897 5.2347 21.4897H15.7041C16.1604 21.4897 16.5307 21.1355 16.5307 20.6991ZM26.449 15.4285C26.449 14.992 26.0787 14.6379 25.6225 14.6379H5.2347C4.7785 14.6379 4.4082 14.992 4.4082 15.4285C4.4082 15.8649 4.7785 16.2191 5.2347 16.2191H25.6225C26.0787 16.2191 26.449 15.8649 26.449 15.4285ZM22.0409 10.1578C22.0409 9.72139 21.6706 9.36719 21.2143 9.36719H5.2347C4.7785 9.36719 4.4082 9.72139 4.4082 10.1578C4.4082 10.5942 4.7785 10.9484 5.2347 10.9484H21.2143C21.6706 10.9484 22.0409 10.5942 22.0409 10.1578Z"
                fill="black" />
        </symbol>
         <symbol  viewBox="0 0 18 11" id="expand" fill="none">
            <path d="M1.85789 1.99998L8.92896 9.07104L16 1.99998" stroke="#242424" stroke-width="3" stroke-linecap="round" stroke-linejoin="round"/>
        </symbol>


        <defs>
            <symbol viewBox="0 0 311 100" id="logo-sudene">
                <image href="logo-sudene.png" width="311" height="100" />
            </symbol>
        </defs>
        <use href="#logo-sudene" />
    </defs>
</svg>